<svg xmlns="http://www.w3.org/2000/svg" xmlns:xlink="http://www.w3.org/1999/xlink" width="150" zoomAndPan="magnify" viewBox="0 0 112.5 30.000001" height="40" preserveAspectRatio="xMidYMid meet" version="1.0"><defs><g/><clipPath id="b4793409ba"><path d="M 7.386719 1.71875 L 32.636719 1.71875 L 32.636719 27.089844 L 7.386719 27.089844 Z M 7.386719 1.71875 " clip-rule="nonzero"/></clipPath><clipPath id="738cf0e5b4"><path d="M 13.191406 1.71875 L 26.832031 1.71875 C 30.039062 1.71875 32.636719 4.316406 32.636719 7.523438 L 32.636719 21.28125 C 32.636719 24.488281 30.039062 27.089844 26.832031 27.089844 L 13.191406 27.089844 C 9.984375 27.089844 7.386719 24.488281 7.386719 21.28125 L 7.386719 7.523438 C 7.386719 4.316406 9.984375 1.71875 13.191406 1.71875 Z M 13.191406 1.71875 " clip-rule="nonzero"/></clipPath><radialGradient gradientTransform="matrix(0.997666, 0, 0, 1.002334, 7.384969, 1.717572)" gradientUnits="userSpaceOnUse" r="17.898588" cx="12.656214" id="b3b632a9a4" cy="12.656214" fx="12.656214" fy="12.656214"><stop stop-opacity="1" stop-color="rgb(99.996948%, 56.677246%, 30.081177%)" offset="0"/><stop stop-opacity="1" stop-color="rgb(99.993896%, 56.236267%, 29.844666%)" offset="0.00390625"/><stop stop-opacity="1" stop-color="rgb(99.990845%, 55.795288%, 29.60968%)" offset="0.0078125"/><stop stop-opacity="1" stop-color="rgb(99.987793%, 55.354309%, 29.373169%)" offset="0.0117188"/><stop stop-opacity="1" stop-color="rgb(99.984741%, 54.911804%, 29.136658%)" offset="0.015625"/><stop stop-opacity="1" stop-color="rgb(99.981689%, 54.470825%, 28.901672%)" offset="0.0195312"/><stop stop-opacity="1" stop-color="rgb(99.978638%, 54.029846%, 28.665161%)" offset="0.0234375"/><stop stop-opacity="1" stop-color="rgb(99.975586%, 53.588867%, 28.42865%)" offset="0.0273438"/><stop stop-opacity="1" stop-color="rgb(99.972534%, 53.146362%, 28.193665%)" offset="0.03125"/><stop stop-opacity="1" stop-color="rgb(99.969482%, 52.705383%, 27.957153%)" offset="0.0351562"/><stop stop-opacity="1" stop-color="rgb(99.966431%, 52.264404%, 27.722168%)" offset="0.0390625"/><stop stop-opacity="1" stop-color="rgb(99.963379%, 51.821899%, 27.485657%)" offset="0.0429688"/><stop stop-opacity="1" stop-color="rgb(99.960327%, 51.38092%, 27.249146%)" offset="0.046875"/><stop stop-opacity="1" stop-color="rgb(99.957275%, 50.939941%, 27.01416%)" offset="0.0507812"/><stop stop-opacity="1" stop-color="rgb(99.954224%, 50.498962%, 26.777649%)" offset="0.0546875"/><stop stop-opacity="1" stop-color="rgb(99.951172%, 50.056458%, 26.541138%)" offset="0.0585938"/><stop stop-opacity="1" stop-color="rgb(99.94812%, 49.615479%, 26.306152%)" offset="0.0625"/><stop stop-opacity="1" stop-color="rgb(99.945068%, 49.1745%, 26.069641%)" offset="0.0664062"/><stop stop-opacity="1" stop-color="rgb(99.942017%, 48.731995%, 25.834656%)" offset="0.0703125"/><stop stop-opacity="1" stop-color="rgb(99.938965%, 48.291016%, 25.598145%)" offset="0.0742188"/><stop stop-opacity="1" stop-color="rgb(99.934387%, 47.850037%, 25.361633%)" offset="0.078125"/><stop stop-opacity="1" stop-color="rgb(99.931335%, 47.409058%, 25.126648%)" offset="0.0820312"/><stop stop-opacity="1" stop-color="rgb(99.928284%, 46.966553%, 24.890137%)" offset="0.0859375"/><stop stop-opacity="1" stop-color="rgb(99.925232%, 46.525574%, 24.653625%)" offset="0.0898438"/><stop stop-opacity="1" stop-color="rgb(99.92218%, 46.084595%, 24.41864%)" offset="0.09375"/><stop stop-opacity="1" stop-color="rgb(99.919128%, 45.64209%, 24.182129%)" offset="0.0976562"/><stop stop-opacity="1" stop-color="rgb(99.916077%, 45.201111%, 23.947144%)" offset="0.101562"/><stop stop-opacity="1" stop-color="rgb(99.913025%, 44.760132%, 23.710632%)" offset="0.105469"/><stop stop-opacity="1" stop-color="rgb(99.909973%, 44.319153%, 23.474121%)" offset="0.109375"/><stop stop-opacity="1" stop-color="rgb(99.906921%, 43.876648%, 23.239136%)" offset="0.113281"/><stop stop-opacity="1" stop-color="rgb(99.90387%, 43.435669%, 23.002625%)" offset="0.117188"/><stop stop-opacity="1" stop-color="rgb(99.900818%, 42.99469%, 22.766113%)" offset="0.121094"/><stop stop-opacity="1" stop-color="rgb(99.897766%, 42.553711%, 22.531128%)" offset="0.125"/><stop stop-opacity="1" stop-color="rgb(99.894714%, 42.111206%, 22.294617%)" offset="0.128906"/><stop stop-opacity="1" stop-color="rgb(99.891663%, 41.670227%, 22.059631%)" offset="0.132812"/><stop stop-opacity="1" stop-color="rgb(99.888611%, 41.229248%, 21.82312%)" offset="0.136719"/><stop stop-opacity="1" stop-color="rgb(99.885559%, 40.786743%, 21.586609%)" offset="0.140625"/><stop stop-opacity="1" stop-color="rgb(99.882507%, 40.345764%, 21.351624%)" offset="0.144531"/><stop stop-opacity="1" stop-color="rgb(99.879456%, 39.904785%, 21.115112%)" offset="0.148438"/><stop stop-opacity="1" stop-color="rgb(99.876404%, 39.463806%, 20.878601%)" offset="0.152344"/><stop stop-opacity="1" stop-color="rgb(99.873352%, 39.021301%, 20.643616%)" offset="0.15625"/><stop stop-opacity="1" stop-color="rgb(99.868774%, 38.580322%, 20.407104%)" offset="0.160156"/><stop stop-opacity="1" stop-color="rgb(99.865723%, 38.139343%, 20.172119%)" offset="0.164062"/><stop stop-opacity="1" stop-color="rgb(99.862671%, 37.696838%, 19.935608%)" offset="0.167969"/><stop stop-opacity="1" stop-color="rgb(99.859619%, 37.255859%, 19.699097%)" offset="0.171875"/><stop stop-opacity="1" stop-color="rgb(99.856567%, 36.81488%, 19.464111%)" offset="0.175781"/><stop stop-opacity="1" stop-color="rgb(99.853516%, 36.373901%, 19.2276%)" offset="0.179688"/><stop stop-opacity="1" stop-color="rgb(99.850464%, 35.931396%, 18.991089%)" offset="0.183594"/><stop stop-opacity="1" stop-color="rgb(99.847412%, 35.490417%, 18.756104%)" offset="0.1875"/><stop stop-opacity="1" stop-color="rgb(99.84436%, 35.049438%, 18.519592%)" offset="0.191406"/><stop stop-opacity="1" stop-color="rgb(99.841309%, 34.606934%, 18.284607%)" offset="0.195312"/><stop stop-opacity="1" stop-color="rgb(99.838257%, 34.165955%, 18.048096%)" offset="0.199219"/><stop stop-opacity="1" stop-color="rgb(99.835205%, 33.724976%, 17.811584%)" offset="0.203125"/><stop stop-opacity="1" stop-color="rgb(99.832153%, 33.283997%, 17.576599%)" offset="0.207031"/><stop stop-opacity="1" stop-color="rgb(99.829102%, 32.841492%, 17.340088%)" offset="0.210938"/><stop stop-opacity="1" stop-color="rgb(99.82605%, 32.400513%, 17.103577%)" offset="0.214844"/><stop stop-opacity="1" stop-color="rgb(99.822998%, 31.959534%, 16.868591%)" offset="0.21875"/><stop stop-opacity="1" stop-color="rgb(99.819946%, 31.518555%, 16.63208%)" offset="0.222656"/><stop stop-opacity="1" stop-color="rgb(99.816895%, 31.07605%, 16.397095%)" offset="0.226562"/><stop stop-opacity="1" stop-color="rgb(99.813843%, 30.635071%, 16.160583%)" offset="0.230469"/><stop stop-opacity="1" stop-color="rgb(99.810791%, 30.194092%, 15.924072%)" offset="0.234375"/><stop stop-opacity="1" stop-color="rgb(99.807739%, 29.751587%, 15.689087%)" offset="0.238281"/><stop stop-opacity="1" stop-color="rgb(99.803162%, 29.310608%, 15.452576%)" offset="0.242188"/><stop stop-opacity="1" stop-color="rgb(99.80011%, 28.869629%, 15.216064%)" offset="0.246094"/><stop stop-opacity="1" stop-color="rgb(99.797058%, 28.42865%, 14.981079%)" offset="0.25"/><stop stop-opacity="1" stop-color="rgb(99.794006%, 27.986145%, 14.744568%)" offset="0.253906"/><stop stop-opacity="1" stop-color="rgb(99.790955%, 27.545166%, 14.509583%)" offset="0.257812"/><stop stop-opacity="1" stop-color="rgb(99.787903%, 27.104187%, 14.273071%)" offset="0.261719"/><stop stop-opacity="1" stop-color="rgb(99.784851%, 26.661682%, 14.03656%)" offset="0.265625"/><stop stop-opacity="1" stop-color="rgb(99.781799%, 26.220703%, 13.801575%)" offset="0.269531"/><stop stop-opacity="1" stop-color="rgb(99.778748%, 25.779724%, 13.565063%)" offset="0.273438"/><stop stop-opacity="1" stop-color="rgb(99.775696%, 25.338745%, 13.328552%)" offset="0.277344"/><stop stop-opacity="1" stop-color="rgb(99.772644%, 24.89624%, 13.093567%)" offset="0.28125"/><stop stop-opacity="1" stop-color="rgb(99.769592%, 24.455261%, 12.857056%)" offset="0.285156"/><stop stop-opacity="1" stop-color="rgb(99.766541%, 24.014282%, 12.62207%)" offset="0.289062"/><stop stop-opacity="1" stop-color="rgb(99.763489%, 23.571777%, 12.385559%)" offset="0.292969"/><stop stop-opacity="1" stop-color="rgb(99.760437%, 23.130798%, 12.149048%)" offset="0.296875"/><stop stop-opacity="1" stop-color="rgb(99.757385%, 22.689819%, 11.914062%)" offset="0.300781"/><stop stop-opacity="1" stop-color="rgb(99.754333%, 22.24884%, 11.677551%)" offset="0.304688"/><stop stop-opacity="1" stop-color="rgb(99.751282%, 21.806335%, 11.44104%)" offset="0.308594"/><stop stop-opacity="1" stop-color="rgb(99.74823%, 21.365356%, 11.206055%)" offset="0.3125"/><stop stop-opacity="1" stop-color="rgb(99.745178%, 20.924377%, 10.969543%)" offset="0.316406"/><stop stop-opacity="1" stop-color="rgb(99.742126%, 20.483398%, 10.734558%)" offset="0.320312"/><stop stop-opacity="1" stop-color="rgb(99.737549%, 20.040894%, 10.498047%)" offset="0.324219"/><stop stop-opacity="1" stop-color="rgb(99.734497%, 19.599915%, 10.261536%)" offset="0.328125"/><stop stop-opacity="1" stop-color="rgb(99.731445%, 19.158936%, 10.02655%)" offset="0.332031"/><stop stop-opacity="1" stop-color="rgb(99.728394%, 18.716431%, 9.790039%)" offset="0.335938"/><stop stop-opacity="1" stop-color="rgb(99.725342%, 18.275452%, 9.553528%)" offset="0.339844"/><stop stop-opacity="1" stop-color="rgb(99.72229%, 17.834473%, 9.318542%)" offset="0.34375"/><stop stop-opacity="1" stop-color="rgb(99.719238%, 17.393494%, 9.082031%)" offset="0.347656"/><stop stop-opacity="1" stop-color="rgb(99.716187%, 16.950989%, 8.847046%)" offset="0.351562"/><stop stop-opacity="1" stop-color="rgb(99.713135%, 16.51001%, 8.610535%)" offset="0.355469"/><stop stop-opacity="1" stop-color="rgb(99.710083%, 16.069031%, 8.374023%)" offset="0.359375"/><stop stop-opacity="1" stop-color="rgb(99.707031%, 15.626526%, 8.139038%)" offset="0.363281"/><stop stop-opacity="1" stop-color="rgb(99.703979%, 15.185547%, 7.902527%)" offset="0.367188"/><stop stop-opacity="1" stop-color="rgb(99.700928%, 14.744568%, 7.666016%)" offset="0.371094"/><stop stop-opacity="1" stop-color="rgb(99.697876%, 14.303589%, 7.43103%)" offset="0.375"/><stop stop-opacity="1" stop-color="rgb(99.694824%, 13.861084%, 7.194519%)" offset="0.378906"/><stop stop-opacity="1" stop-color="rgb(99.691772%, 13.420105%, 6.959534%)" offset="0.382812"/><stop stop-opacity="1" stop-color="rgb(99.688721%, 12.979126%, 6.723022%)" offset="0.386719"/><stop stop-opacity="1" stop-color="rgb(99.685669%, 12.536621%, 6.486511%)" offset="0.390625"/><stop stop-opacity="1" stop-color="rgb(99.682617%, 12.095642%, 6.251526%)" offset="0.394531"/><stop stop-opacity="1" stop-color="rgb(99.679565%, 11.654663%, 6.015015%)" offset="0.398438"/><stop stop-opacity="1" stop-color="rgb(99.676514%, 11.213684%, 5.778503%)" offset="0.402344"/><stop stop-opacity="1" stop-color="rgb(99.671936%, 10.771179%, 5.543518%)" offset="0.40625"/><stop stop-opacity="1" stop-color="rgb(99.668884%, 10.3302%, 5.307007%)" offset="0.410156"/><stop stop-opacity="1" stop-color="rgb(99.665833%, 9.889221%, 5.072021%)" offset="0.414062"/><stop stop-opacity="1" stop-color="rgb(99.662781%, 9.448242%, 4.83551%)" offset="0.417969"/><stop stop-opacity="1" stop-color="rgb(99.659729%, 9.005737%, 4.598999%)" offset="0.421875"/><stop stop-opacity="1" stop-color="rgb(99.656677%, 8.564758%, 4.364014%)" offset="0.425781"/><stop stop-opacity="1" stop-color="rgb(99.653625%, 8.123779%, 4.127502%)" offset="0.429688"/><stop stop-opacity="1" stop-color="rgb(99.650574%, 7.681274%, 3.890991%)" offset="0.433594"/><stop stop-opacity="1" stop-color="rgb(99.647522%, 7.240295%, 3.656006%)" offset="0.4375"/><stop stop-opacity="1" stop-color="rgb(99.64447%, 6.799316%, 3.419495%)" offset="0.441406"/><stop stop-opacity="1" stop-color="rgb(99.641418%, 6.358337%, 3.184509%)" offset="0.445312"/><stop stop-opacity="1" stop-color="rgb(99.638367%, 5.915833%, 2.947998%)" offset="0.449219"/><stop stop-opacity="1" stop-color="rgb(99.635315%, 5.474854%, 2.711487%)" offset="0.453125"/><stop stop-opacity="1" stop-color="rgb(99.632263%, 5.033875%, 2.476501%)" offset="0.457031"/><stop stop-opacity="1" stop-color="rgb(99.629211%, 4.59137%, 2.23999%)" offset="0.460938"/><stop stop-opacity="1" stop-color="rgb(99.62616%, 4.150391%, 2.003479%)" offset="0.464844"/><stop stop-opacity="1" stop-color="rgb(99.623108%, 3.709412%, 1.768494%)" offset="0.46875"/><stop stop-opacity="1" stop-color="rgb(99.620056%, 3.268433%, 1.531982%)" offset="0.472656"/><stop stop-opacity="1" stop-color="rgb(99.617004%, 2.825928%, 1.296997%)" offset="0.476562"/><stop stop-opacity="1" stop-color="rgb(99.613953%, 2.384949%, 1.060486%)" offset="0.480469"/><stop stop-opacity="1" stop-color="rgb(99.610901%, 1.94397%, 0.823975%)" offset="0.484375"/><stop stop-opacity="1" stop-color="rgb(99.606323%, 1.501465%, 0.588989%)" offset="0.488281"/><stop stop-opacity="1" stop-color="rgb(99.603271%, 1.060486%, 0.352478%)" offset="0.492188"/><stop stop-opacity="1" stop-color="rgb(99.60022%, 0.619507%, 0.117493%)" offset="0.496094"/><stop stop-opacity="1" stop-color="rgb(99.60022%, 0.619507%, 0.117493%)" offset="0.5"/><stop stop-opacity="1" stop-color="rgb(99.603271%, 1.060486%, 0.352478%)" offset="0.503906"/><stop stop-opacity="1" stop-color="rgb(99.606323%, 1.501465%, 0.588989%)" offset="0.507812"/><stop stop-opacity="1" stop-color="rgb(99.610901%, 1.94397%, 0.823975%)" offset="0.511719"/><stop stop-opacity="1" stop-color="rgb(99.613953%, 2.384949%, 1.060486%)" offset="0.515625"/><stop stop-opacity="1" stop-color="rgb(99.617004%, 2.825928%, 1.296997%)" offset="0.519531"/><stop stop-opacity="1" stop-color="rgb(99.620056%, 3.268433%, 1.531982%)" offset="0.523438"/><stop stop-opacity="1" stop-color="rgb(99.623108%, 3.709412%, 1.768494%)" offset="0.527344"/><stop stop-opacity="1" stop-color="rgb(99.62616%, 4.150391%, 2.003479%)" offset="0.53125"/><stop stop-opacity="1" stop-color="rgb(99.629211%, 4.59137%, 2.23999%)" offset="0.535156"/><stop stop-opacity="1" stop-color="rgb(99.632263%, 5.033875%, 2.476501%)" offset="0.539062"/><stop stop-opacity="1" stop-color="rgb(99.635315%, 5.474854%, 2.711487%)" offset="0.542969"/><stop stop-opacity="1" stop-color="rgb(99.638367%, 5.915833%, 2.947998%)" offset="0.546875"/><stop stop-opacity="1" stop-color="rgb(99.641418%, 6.358337%, 3.184509%)" offset="0.550781"/><stop stop-opacity="1" stop-color="rgb(99.64447%, 6.799316%, 3.419495%)" offset="0.554688"/><stop stop-opacity="1" stop-color="rgb(99.647522%, 7.240295%, 3.656006%)" offset="0.558594"/><stop stop-opacity="1" stop-color="rgb(99.650574%, 7.681274%, 3.890991%)" offset="0.5625"/><stop stop-opacity="1" stop-color="rgb(99.653625%, 8.123779%, 4.127502%)" offset="0.566406"/><stop stop-opacity="1" stop-color="rgb(99.656677%, 8.564758%, 4.364014%)" offset="0.570312"/><stop stop-opacity="1" stop-color="rgb(99.659729%, 9.005737%, 4.598999%)" offset="0.574219"/><stop stop-opacity="1" stop-color="rgb(99.662781%, 9.448242%, 4.83551%)" offset="0.578125"/><stop stop-opacity="1" stop-color="rgb(99.665833%, 9.889221%, 5.072021%)" offset="0.582031"/><stop stop-opacity="1" stop-color="rgb(99.668884%, 10.3302%, 5.307007%)" offset="0.585938"/><stop stop-opacity="1" stop-color="rgb(99.671936%, 10.771179%, 5.543518%)" offset="0.589844"/><stop stop-opacity="1" stop-color="rgb(99.676514%, 11.213684%, 5.778503%)" offset="0.59375"/><stop stop-opacity="1" stop-color="rgb(99.679565%, 11.654663%, 6.015015%)" offset="0.597656"/><stop stop-opacity="1" stop-color="rgb(99.682617%, 12.095642%, 6.251526%)" offset="0.601562"/><stop stop-opacity="1" stop-color="rgb(99.685669%, 12.536621%, 6.486511%)" offset="0.605469"/><stop stop-opacity="1" stop-color="rgb(99.688721%, 12.979126%, 6.723022%)" offset="0.609375"/><stop stop-opacity="1" stop-color="rgb(99.691772%, 13.420105%, 6.959534%)" offset="0.613281"/><stop stop-opacity="1" stop-color="rgb(99.694824%, 13.861084%, 7.194519%)" offset="0.617188"/><stop stop-opacity="1" stop-color="rgb(99.697876%, 14.303589%, 7.43103%)" offset="0.621094"/><stop stop-opacity="1" stop-color="rgb(99.700928%, 14.744568%, 7.666016%)" offset="0.625"/><stop stop-opacity="1" stop-color="rgb(99.703979%, 15.185547%, 7.902527%)" offset="0.628906"/><stop stop-opacity="1" stop-color="rgb(99.707031%, 15.626526%, 8.139038%)" offset="0.632812"/><stop stop-opacity="1" stop-color="rgb(99.710083%, 16.069031%, 8.374023%)" offset="0.636719"/><stop stop-opacity="1" stop-color="rgb(99.713135%, 16.51001%, 8.610535%)" offset="0.640625"/><stop stop-opacity="1" stop-color="rgb(99.716187%, 16.950989%, 8.847046%)" offset="0.644531"/><stop stop-opacity="1" stop-color="rgb(99.719238%, 17.393494%, 9.082031%)" offset="0.648438"/><stop stop-opacity="1" stop-color="rgb(99.72229%, 17.834473%, 9.318542%)" offset="0.652344"/><stop stop-opacity="1" stop-color="rgb(99.725342%, 18.275452%, 9.553528%)" offset="0.65625"/><stop stop-opacity="1" stop-color="rgb(99.728394%, 18.716431%, 9.790039%)" offset="0.660156"/><stop stop-opacity="1" stop-color="rgb(99.731445%, 19.158936%, 10.02655%)" offset="0.664062"/><stop stop-opacity="1" stop-color="rgb(99.734497%, 19.599915%, 10.261536%)" offset="0.667969"/><stop stop-opacity="1" stop-color="rgb(99.737549%, 20.040894%, 10.498047%)" offset="0.671875"/><stop stop-opacity="1" stop-color="rgb(99.742126%, 20.483398%, 10.734558%)" offset="0.675781"/><stop stop-opacity="1" stop-color="rgb(99.745178%, 20.924377%, 10.969543%)" offset="0.679688"/><stop stop-opacity="1" stop-color="rgb(99.74823%, 21.365356%, 11.206055%)" offset="0.683594"/><stop stop-opacity="1" stop-color="rgb(99.751282%, 21.806335%, 11.44104%)" offset="0.6875"/><stop stop-opacity="1" stop-color="rgb(99.754333%, 22.24884%, 11.677551%)" offset="0.691406"/><stop stop-opacity="1" stop-color="rgb(99.757385%, 22.689819%, 11.914062%)" offset="0.695312"/><stop stop-opacity="1" stop-color="rgb(99.760437%, 23.130798%, 12.149048%)" offset="0.699219"/><stop stop-opacity="1" stop-color="rgb(99.763489%, 23.571777%, 12.385559%)" offset="0.703125"/><stop stop-opacity="1" stop-color="rgb(99.766541%, 24.014282%, 12.62207%)" offset="0.707031"/><stop stop-opacity="1" stop-color="rgb(99.769592%, 24.455261%, 12.857056%)" offset="0.710938"/><stop stop-opacity="1" stop-color="rgb(99.772644%, 24.89624%, 13.093567%)" offset="0.714844"/><stop stop-opacity="1" stop-color="rgb(99.775696%, 25.338745%, 13.328552%)" offset="0.71875"/><stop stop-opacity="1" stop-color="rgb(99.778748%, 25.779724%, 13.565063%)" offset="0.722656"/><stop stop-opacity="1" stop-color="rgb(99.781799%, 26.220703%, 13.801575%)" offset="0.726562"/><stop stop-opacity="1" stop-color="rgb(99.784851%, 26.661682%, 14.03656%)" offset="0.730469"/><stop stop-opacity="1" stop-color="rgb(99.787903%, 27.104187%, 14.273071%)" offset="0.734375"/><stop stop-opacity="1" stop-color="rgb(99.790955%, 27.545166%, 14.509583%)" offset="0.738281"/><stop stop-opacity="1" stop-color="rgb(99.794006%, 27.986145%, 14.744568%)" offset="0.742188"/><stop stop-opacity="1" stop-color="rgb(99.797058%, 28.42865%, 14.981079%)" offset="0.746094"/><stop stop-opacity="1" stop-color="rgb(99.80011%, 28.869629%, 15.216064%)" offset="0.75"/><stop stop-opacity="1" stop-color="rgb(99.803162%, 29.310608%, 15.452576%)" offset="0.753906"/><stop stop-opacity="1" stop-color="rgb(99.807739%, 29.751587%, 15.689087%)" offset="0.757812"/><stop stop-opacity="1" stop-color="rgb(99.810791%, 30.194092%, 15.924072%)" offset="0.761719"/><stop stop-opacity="1" stop-color="rgb(99.813843%, 30.635071%, 16.160583%)" offset="0.765625"/><stop stop-opacity="1" stop-color="rgb(99.816895%, 31.07605%, 16.397095%)" offset="0.769531"/><stop stop-opacity="1" stop-color="rgb(99.819946%, 31.518555%, 16.63208%)" offset="0.773438"/><stop stop-opacity="1" stop-color="rgb(99.822998%, 31.959534%, 16.868591%)" offset="0.777344"/><stop stop-opacity="1" stop-color="rgb(99.82605%, 32.400513%, 17.103577%)" offset="0.78125"/><stop stop-opacity="1" stop-color="rgb(99.829102%, 32.841492%, 17.340088%)" offset="0.785156"/><stop stop-opacity="1" stop-color="rgb(99.832153%, 33.283997%, 17.576599%)" offset="0.789062"/><stop stop-opacity="1" stop-color="rgb(99.835205%, 33.724976%, 17.811584%)" offset="0.792969"/><stop stop-opacity="1" stop-color="rgb(99.838257%, 34.165955%, 18.048096%)" offset="0.796875"/><stop stop-opacity="1" stop-color="rgb(99.841309%, 34.606934%, 18.284607%)" offset="0.800781"/><stop stop-opacity="1" stop-color="rgb(99.84436%, 35.049438%, 18.519592%)" offset="0.804688"/><stop stop-opacity="1" stop-color="rgb(99.847412%, 35.490417%, 18.756104%)" offset="0.808594"/><stop stop-opacity="1" stop-color="rgb(99.850464%, 35.931396%, 18.991089%)" offset="0.8125"/><stop stop-opacity="1" stop-color="rgb(99.853516%, 36.373901%, 19.2276%)" offset="0.816406"/><stop stop-opacity="1" stop-color="rgb(99.856567%, 36.81488%, 19.464111%)" offset="0.820312"/><stop stop-opacity="1" stop-color="rgb(99.859619%, 37.255859%, 19.699097%)" offset="0.824219"/><stop stop-opacity="1" stop-color="rgb(99.862671%, 37.696838%, 19.935608%)" offset="0.828125"/><stop stop-opacity="1" stop-color="rgb(99.865723%, 38.139343%, 20.172119%)" offset="0.832031"/><stop stop-opacity="1" stop-color="rgb(99.868774%, 38.580322%, 20.407104%)" offset="0.835938"/><stop stop-opacity="1" stop-color="rgb(99.873352%, 39.021301%, 20.643616%)" offset="0.839844"/><stop stop-opacity="1" stop-color="rgb(99.876404%, 39.463806%, 20.878601%)" offset="0.84375"/><stop stop-opacity="1" stop-color="rgb(99.879456%, 39.904785%, 21.115112%)" offset="0.847656"/><stop stop-opacity="1" stop-color="rgb(99.882507%, 40.345764%, 21.351624%)" offset="0.851562"/><stop stop-opacity="1" stop-color="rgb(99.885559%, 40.786743%, 21.586609%)" offset="0.855469"/><stop stop-opacity="1" stop-color="rgb(99.888611%, 41.229248%, 21.82312%)" offset="0.859375"/><stop stop-opacity="1" stop-color="rgb(99.891663%, 41.670227%, 22.059631%)" offset="0.863281"/><stop stop-opacity="1" stop-color="rgb(99.894714%, 42.111206%, 22.294617%)" offset="0.867188"/><stop stop-opacity="1" stop-color="rgb(99.897766%, 42.553711%, 22.531128%)" offset="0.871094"/><stop stop-opacity="1" stop-color="rgb(99.900818%, 42.99469%, 22.766113%)" offset="0.875"/><stop stop-opacity="1" stop-color="rgb(99.90387%, 43.435669%, 23.002625%)" offset="0.878906"/><stop stop-opacity="1" stop-color="rgb(99.906921%, 43.876648%, 23.239136%)" offset="0.882812"/><stop stop-opacity="1" stop-color="rgb(99.909973%, 44.319153%, 23.474121%)" offset="0.886719"/><stop stop-opacity="1" stop-color="rgb(99.913025%, 44.760132%, 23.710632%)" offset="0.890625"/><stop stop-opacity="1" stop-color="rgb(99.916077%, 45.201111%, 23.947144%)" offset="0.894531"/><stop stop-opacity="1" stop-color="rgb(99.919128%, 45.64209%, 24.182129%)" offset="0.898438"/><stop stop-opacity="1" stop-color="rgb(99.92218%, 46.084595%, 24.41864%)" offset="0.902344"/><stop stop-opacity="1" stop-color="rgb(99.925232%, 46.525574%, 24.653625%)" offset="0.90625"/><stop stop-opacity="1" stop-color="rgb(99.928284%, 46.966553%, 24.890137%)" offset="0.910156"/><stop stop-opacity="1" stop-color="rgb(99.931335%, 47.409058%, 25.126648%)" offset="0.914062"/><stop stop-opacity="1" stop-color="rgb(99.934387%, 47.850037%, 25.361633%)" offset="0.917969"/><stop stop-opacity="1" stop-color="rgb(99.938965%, 48.291016%, 25.598145%)" offset="0.921875"/><stop stop-opacity="1" stop-color="rgb(99.942017%, 48.731995%, 25.834656%)" offset="0.925781"/><stop stop-opacity="1" stop-color="rgb(99.945068%, 49.1745%, 26.069641%)" offset="0.929688"/><stop stop-opacity="1" stop-color="rgb(99.94812%, 49.615479%, 26.306152%)" offset="0.933594"/><stop stop-opacity="1" stop-color="rgb(99.951172%, 50.056458%, 26.541138%)" offset="0.9375"/><stop stop-opacity="1" stop-color="rgb(99.954224%, 50.498962%, 26.777649%)" offset="0.941406"/><stop stop-opacity="1" stop-color="rgb(99.957275%, 50.939941%, 27.01416%)" offset="0.945312"/><stop stop-opacity="1" stop-color="rgb(99.960327%, 51.38092%, 27.249146%)" offset="0.949219"/><stop stop-opacity="1" stop-color="rgb(99.963379%, 51.821899%, 27.485657%)" offset="0.953125"/><stop stop-opacity="1" stop-color="rgb(99.966431%, 52.264404%, 27.722168%)" offset="0.957031"/><stop stop-opacity="1" stop-color="rgb(99.969482%, 52.705383%, 27.957153%)" offset="0.960938"/><stop stop-opacity="1" stop-color="rgb(99.972534%, 53.146362%, 28.193665%)" offset="0.964844"/><stop stop-opacity="1" stop-color="rgb(99.975586%, 53.588867%, 28.42865%)" offset="0.96875"/><stop stop-opacity="1" stop-color="rgb(99.978638%, 54.029846%, 28.665161%)" offset="0.972656"/><stop stop-opacity="1" stop-color="rgb(99.981689%, 54.470825%, 28.901672%)" offset="0.976562"/><stop stop-opacity="1" stop-color="rgb(99.984741%, 54.911804%, 29.136658%)" offset="0.980469"/><stop stop-opacity="1" stop-color="rgb(99.987793%, 55.354309%, 29.373169%)" offset="0.984375"/><stop stop-opacity="1" stop-color="rgb(99.990845%, 55.795288%, 29.60968%)" offset="0.988281"/><stop stop-opacity="1" stop-color="rgb(99.993896%, 56.236267%, 29.844666%)" offset="0.992188"/><stop stop-opacity="1" stop-color="rgb(99.996948%, 56.677246%, 30.081177%)" offset="0.996094"/><stop stop-opacity="1" stop-color="rgb(100%, 56.898499%, 30.198669%)" offset="1"/></radialGradient></defs><g clip-path="url(#b4793409ba)"><g clip-path="url(#738cf0e5b4)"><path fill="url(#b3b632a9a4)" d="M 7.386719 1.71875 L 7.386719 27.089844 L 32.636719 27.089844 L 32.636719 1.71875 Z M 7.386719 1.71875 " fill-rule="nonzero"/></g></g><path fill="#ffffff" d="M 18.882812 4.035156 C 19.316406 3.714844 19.886719 3.628906 20.410156 3.722656 C 21.035156 3.851562 21.585938 4.316406 21.804688 4.921875 C 21.941406 5.273438 21.949219 5.667969 21.878906 6.035156 C 21.738281 6.617188 21.3125 7.136719 20.753906 7.359375 C 20.621094 7.421875 20.410156 7.464844 20.425781 7.652344 C 20.417969 8.605469 20.429688 9.554688 20.429688 10.503906 C 20.4375 11.140625 20.390625 11.789062 20.539062 12.417969 C 20.6875 12.984375 20.945312 13.546875 21.394531 13.941406 C 21.507812 13.421875 21.757812 12.953125 21.980469 12.476562 C 22.167969 12.109375 22.339844 11.730469 22.578125 11.386719 C 22.921875 10.882812 23.390625 10.46875 23.902344 10.140625 C 24.066406 10.035156 24.246094 9.953125 24.398438 9.835938 C 24.53125 9.730469 24.570312 9.554688 24.605469 9.398438 C 24.324219 8.957031 24.214844 8.398438 24.378906 7.894531 C 24.484375 7.507812 24.734375 7.179688 25.03125 6.921875 C 25.386719 6.609375 25.875 6.484375 26.34375 6.5 C 26.976562 6.519531 27.570312 6.910156 27.882812 7.457031 C 28.171875 7.988281 28.210938 8.65625 27.957031 9.210938 C 27.804688 9.523438 27.609375 9.835938 27.300781 10.007812 C 26.847656 10.308594 26.273438 10.398438 25.753906 10.253906 C 25.503906 10.160156 25.269531 10.328125 25.050781 10.425781 C 24.199219 10.878906 23.371094 11.488281 22.921875 12.371094 C 22.757812 12.691406 22.609375 13.027344 22.449219 13.351562 C 22.292969 13.683594 22.128906 14.023438 22.101562 14.394531 C 22.4375 14.578125 22.835938 14.5625 23.207031 14.5625 C 23.71875 14.558594 24.207031 14.386719 24.710938 14.347656 C 25.480469 14.292969 26.253906 14.367188 27.023438 14.328125 C 27.136719 14.015625 27.253906 13.691406 27.503906 13.464844 C 28.101562 12.835938 29.15625 12.710938 29.878906 13.191406 C 30.390625 13.535156 30.753906 14.121094 30.753906 14.746094 C 30.769531 15.167969 30.621094 15.585938 30.386719 15.933594 C 30.035156 16.421875 29.441406 16.726562 28.84375 16.703125 C 28.402344 16.703125 27.980469 16.507812 27.648438 16.230469 C 27.328125 15.972656 27.078125 15.617188 27.015625 15.203125 C 26.308594 15.152344 25.601562 15.152344 24.890625 15.15625 C 24.394531 15.15625 23.917969 15.3125 23.429688 15.351562 C 22.730469 15.414062 21.960938 15.386719 21.386719 14.9375 C 21.253906 15.089844 21.261719 15.308594 21.285156 15.5 C 21.359375 15.929688 21.660156 16.269531 21.960938 16.566406 C 22.75 17.320312 23.667969 17.917969 24.515625 18.601562 C 24.800781 18.832031 25.050781 19.101562 25.34375 19.320312 C 25.820312 19.160156 26.355469 19.074219 26.84375 19.25 C 27.367188 19.421875 27.785156 19.847656 28 20.347656 C 28.335938 21.144531 28.039062 22.15625 27.304688 22.621094 C 26.71875 23.003906 25.917969 23.042969 25.300781 22.707031 C 24.804688 22.40625 24.40625 21.902344 24.335938 21.320312 C 24.261719 20.871094 24.398438 20.425781 24.601562 20.03125 C 24.535156 19.800781 24.410156 19.582031 24.21875 19.429688 C 23.433594 18.796875 22.609375 18.214844 21.8125 17.597656 C 21.21875 17.125 20.714844 16.507812 20.503906 15.769531 C 20.425781 15.496094 20.355469 15.207031 20.398438 14.921875 C 20.433594 14.722656 20.601562 14.589844 20.777344 14.507812 C 20.40625 14.144531 20.09375 13.714844 19.902344 13.230469 C 19.714844 12.769531 19.667969 12.273438 19.648438 11.78125 C 19.609375 10.40625 19.617188 9.027344 19.609375 7.652344 C 19.625 7.527344 19.515625 7.460938 19.417969 7.429688 C 18.976562 7.257812 18.570312 6.953125 18.347656 6.53125 C 18.105469 6.058594 18.027344 5.488281 18.203125 4.984375 C 18.335938 4.613281 18.558594 4.265625 18.882812 4.035156 M 19.742188 4.554688 C 19.292969 4.667969 18.949219 5.097656 18.9375 5.558594 C 18.910156 6.066406 19.304688 6.535156 19.789062 6.652344 C 20.171875 6.734375 20.605469 6.601562 20.855469 6.292969 C 21.070312 6.03125 21.203125 5.667969 21.085938 5.335938 C 20.9375 4.777344 20.304688 4.398438 19.742188 4.554688 M 25.84375 7.402344 C 25.535156 7.523438 25.292969 7.800781 25.203125 8.121094 C 25.070312 8.570312 25.285156 9.070312 25.652344 9.335938 C 26.105469 9.601562 26.75 9.496094 27.078125 9.085938 C 27.332031 8.792969 27.390625 8.347656 27.222656 8 C 27.007812 7.484375 26.367188 7.199219 25.84375 7.402344 M 28.515625 13.796875 C 28.136719 13.925781 27.859375 14.296875 27.820312 14.691406 C 27.753906 15.328125 28.371094 15.972656 29.019531 15.859375 C 29.359375 15.804688 29.683594 15.578125 29.824219 15.261719 C 29.980469 14.910156 29.941406 14.476562 29.703125 14.175781 C 29.449219 13.800781 28.941406 13.648438 28.515625 13.796875 M 25.957031 20.007812 C 25.496094 20.113281 25.175781 20.5625 25.167969 21.023438 C 25.132812 21.464844 25.429688 21.886719 25.820312 22.0625 C 26.496094 22.316406 27.34375 21.753906 27.328125 21.023438 C 27.308594 20.359375 26.589844 19.851562 25.957031 20.007812 Z M 25.957031 20.007812 " fill-opacity="1" fill-rule="nonzero"/><path fill="#ffffff" d="M 13.414062 6.535156 C 13.824219 6.453125 14.269531 6.480469 14.644531 6.679688 C 15.066406 6.894531 15.421875 7.253906 15.605469 7.695312 C 15.730469 8.035156 15.746094 8.402344 15.714844 8.761719 C 15.691406 8.996094 15.566406 9.203125 15.46875 9.410156 C 15.390625 9.539062 15.484375 9.679688 15.542969 9.796875 C 15.710938 10.046875 15.949219 10.238281 16.171875 10.4375 C 16.953125 11.074219 17.792969 11.636719 18.542969 12.316406 C 19.070312 12.796875 19.527344 13.394531 19.695312 14.101562 C 19.742188 14.292969 19.6875 14.535156 19.480469 14.609375 C 19.234375 14.6875 18.992188 14.496094 18.90625 14.277344 C 18.75 13.914062 18.566406 13.554688 18.292969 13.265625 C 17.429688 12.390625 16.375 11.742188 15.445312 10.945312 C 15.167969 10.722656 14.96875 10.421875 14.714844 10.179688 C 14.292969 10.234375 13.871094 10.363281 13.445312 10.289062 C 12.886719 10.1875 12.417969 9.792969 12.125 9.320312 C 11.664062 8.5 11.917969 7.332031 12.722656 6.824219 C 12.933594 6.683594 13.167969 6.582031 13.414062 6.535156 M 13.582031 7.347656 C 12.984375 7.46875 12.578125 8.144531 12.761719 8.726562 C 12.917969 9.222656 13.445312 9.554688 13.960938 9.46875 C 14.566406 9.417969 15.042969 8.75 14.855469 8.160156 C 14.714844 7.625 14.140625 7.199219 13.582031 7.347656 Z M 13.582031 7.347656 " fill-opacity="1" fill-rule="nonzero"/><path fill="#ffffff" d="M 10.332031 13.089844 C 10.78125 12.902344 11.300781 12.820312 11.773438 12.984375 C 12.394531 13.183594 12.871094 13.726562 13.03125 14.351562 C 13.789062 14.351562 14.542969 14.355469 15.300781 14.34375 C 16.183594 14.28125 17.097656 13.996094 17.96875 14.300781 C 19.1875 14.757812 20.171875 15.878906 20.359375 17.183594 C 20.441406 17.761719 20.390625 18.347656 20.417969 18.929688 C 20.421875 19.859375 20.421875 20.792969 20.421875 21.722656 C 20.410156 21.796875 20.429688 21.886719 20.515625 21.90625 C 20.804688 22 21.089844 22.121094 21.316406 22.328125 C 21.75 22.734375 21.960938 23.347656 21.921875 23.933594 C 21.875 24.503906 21.558594 25.046875 21.0625 25.34375 C 20.289062 25.863281 19.128906 25.730469 18.546875 24.980469 C 17.871094 24.1875 17.984375 22.847656 18.835938 22.226562 C 19.0625 22.039062 19.367188 22.011719 19.605469 21.84375 C 19.644531 20.855469 19.613281 19.863281 19.621094 18.875 C 19.613281 18.3125 19.640625 17.742188 19.511719 17.191406 C 19.386719 16.65625 19.089844 16.167969 18.714844 15.765625 C 18.558594 16.34375 18.144531 16.792969 17.859375 17.304688 C 17.609375 17.707031 17.410156 18.152344 17.066406 18.488281 C 16.671875 18.917969 16.167969 19.214844 15.707031 19.570312 C 15.566406 19.667969 15.488281 19.828125 15.398438 19.972656 C 15.65625 20.457031 15.820312 21.019531 15.65625 21.5625 C 15.488281 22.078125 15.128906 22.5625 14.613281 22.773438 C 14.027344 23.042969 13.300781 22.992188 12.761719 22.636719 C 12.183594 22.253906 11.839844 21.542969 11.917969 20.851562 C 11.984375 20.140625 12.488281 19.472656 13.175781 19.257812 C 13.632812 19.101562 14.132812 19.148438 14.59375 19.261719 C 15.46875 18.746094 16.363281 18.179688 16.9375 17.316406 C 17.328125 16.644531 17.800781 16.011719 18.039062 15.269531 C 17.878906 15.101562 17.636719 15.066406 17.421875 15.011719 C 16.726562 14.875 16.046875 15.136719 15.355469 15.171875 C 14.621094 15.199219 13.890625 15.144531 13.15625 15.179688 C 12.992188 15.171875 12.988281 15.382812 12.949219 15.496094 C 12.832031 15.835938 12.601562 16.140625 12.3125 16.351562 C 11.746094 16.757812 10.960938 16.816406 10.34375 16.507812 C 9.714844 16.214844 9.28125 15.554688 9.273438 14.859375 C 9.257812 14.136719 9.660156 13.390625 10.332031 13.089844 M 10.84375 13.785156 C 10.425781 13.933594 10.097656 14.351562 10.109375 14.800781 C 10.109375 15.386719 10.644531 15.902344 11.230469 15.871094 C 11.699219 15.859375 12.109375 15.492188 12.210938 15.039062 C 12.335938 14.527344 12.007812 13.9375 11.5 13.785156 C 11.285156 13.730469 11.054688 13.71875 10.84375 13.785156 M 13.527344 20.023438 C 13 20.15625 12.65625 20.738281 12.761719 21.265625 C 12.824219 21.535156 12.980469 21.789062 13.210938 21.945312 C 13.519531 22.144531 13.925781 22.167969 14.257812 22.019531 C 14.621094 21.855469 14.871094 21.476562 14.882812 21.078125 C 14.875 20.722656 14.699219 20.367188 14.402344 20.164062 C 14.152344 19.980469 13.820312 19.933594 13.527344 20.023438 M 19.726562 22.714844 C 19.320312 22.835938 18.941406 23.191406 18.9375 23.636719 C 18.90625 24.070312 19.148438 24.492188 19.507812 24.726562 C 20.144531 25.066406 21.042969 24.597656 21.101562 23.871094 C 21.191406 23.160156 20.425781 22.472656 19.726562 22.714844 Z M 19.726562 22.714844 " fill-opacity="1" fill-rule="nonzero"/><g fill="#ffffff" fill-opacity="1"><g transform="translate(34.993022, 21.123562)"><g><path d="M 6.53125 -14.734375 C 8.132812 -14.734375 9.445312 -14.375 10.46875 -13.65625 C 11.488281 -12.9375 12.023438 -11.832031 12.078125 -10.34375 L 9.140625 -10.21875 C 9.046875 -10.894531 8.800781 -11.414062 8.40625 -11.78125 C 8.007812 -12.144531 7.375 -12.328125 6.5 -12.328125 C 5.882812 -12.328125 5.320312 -12.21875 4.8125 -12 C 4.300781 -11.78125 4.046875 -11.410156 4.046875 -10.890625 C 4.046875 -10.441406 4.273438 -10.082031 4.734375 -9.8125 C 5.191406 -9.550781 6.007812 -9.289062 7.1875 -9.03125 C 8.28125 -8.769531 9.179688 -8.492188 9.890625 -8.203125 C 10.597656 -7.910156 11.207031 -7.441406 11.71875 -6.796875 C 12.226562 -6.160156 12.484375 -5.296875 12.484375 -4.203125 C 12.484375 -3.648438 12.351562 -3.0625 12.09375 -2.4375 C 11.84375 -1.820312 11.425781 -1.289062 10.84375 -0.84375 C 10.414062 -0.5 9.847656 -0.226562 9.140625 -0.03125 C 8.429688 0.15625 7.609375 0.25 6.671875 0.25 C 4.867188 0.25 3.476562 -0.15625 2.5 -0.96875 C 1.53125 -1.789062 0.941406 -3.039062 0.734375 -4.71875 L 3.5625 -4.984375 C 3.875 -3.128906 4.925781 -2.203125 6.71875 -2.203125 C 7.664062 -2.203125 8.378906 -2.398438 8.859375 -2.796875 C 9.335938 -3.203125 9.578125 -3.671875 9.578125 -4.203125 C 9.578125 -4.597656 9.457031 -4.910156 9.21875 -5.140625 C 8.976562 -5.367188 8.601562 -5.566406 8.09375 -5.734375 C 7.59375 -5.898438 6.800781 -6.113281 5.71875 -6.375 C 4.375 -6.664062 3.289062 -7.160156 2.46875 -7.859375 C 1.65625 -8.566406 1.25 -9.507812 1.25 -10.6875 C 1.25 -11.320312 1.410156 -11.941406 1.734375 -12.546875 C 2.054688 -13.160156 2.613281 -13.675781 3.40625 -14.09375 C 4.195312 -14.519531 5.238281 -14.734375 6.53125 -14.734375 Z M 6.53125 -14.734375 "/></g></g></g><g fill="#ffffff" fill-opacity="1"><g transform="translate(47.167262, 21.123562)"><g><path d="M 5.578125 -3.03125 L 5.625 -3.03125 L 8.046875 -10.484375 L 10.921875 -10.484375 L 7.21875 -0.390625 L 6.984375 0.328125 C 6.628906 1.304688 6.3125 2.046875 6.03125 2.546875 C 5.757812 3.054688 5.359375 3.46875 4.828125 3.78125 C 4.296875 4.09375 3.5625 4.25 2.625 4.25 C 2.070312 4.25 1.546875 4.195312 1.046875 4.09375 L 0.8125 1.921875 C 1.28125 2.003906 1.664062 2.046875 1.96875 2.046875 C 2.539062 2.046875 2.984375 1.894531 3.296875 1.59375 C 3.617188 1.289062 3.894531 0.765625 4.125 0.015625 L 0.140625 -10.484375 L 3.09375 -10.484375 Z M 5.578125 -3.03125 "/></g></g></g><g fill="#ffffff" fill-opacity="1"><g transform="translate(57.096617, 21.123562)"><g><path d="M 7.484375 -10.71875 C 8.109375 -10.71875 8.648438 -10.613281 9.109375 -10.40625 C 9.566406 -10.195312 9.929688 -9.953125 10.203125 -9.671875 C 10.523438 -9.316406 10.734375 -8.898438 10.828125 -8.421875 C 10.929688 -7.941406 10.984375 -7.414062 10.984375 -6.84375 L 10.984375 0 L 8.21875 0 L 8.21875 -5.71875 C 8.21875 -6.695312 8.109375 -7.421875 7.890625 -7.890625 C 7.671875 -8.359375 7.210938 -8.59375 6.515625 -8.59375 C 5.859375 -8.59375 5.347656 -8.40625 4.984375 -8.03125 C 4.617188 -7.65625 4.398438 -7.21875 4.328125 -6.71875 C 4.285156 -6.394531 4.253906 -6.101562 4.234375 -5.84375 C 4.210938 -5.59375 4.203125 -5.304688 4.203125 -4.984375 L 4.203125 0 L 1.4375 0 L 1.4375 -10.484375 L 4.0625 -10.484375 L 4.0625 -8.9375 C 4.363281 -9.382812 4.804688 -9.789062 5.390625 -10.15625 C 5.972656 -10.53125 6.671875 -10.71875 7.484375 -10.71875 Z M 7.484375 -10.71875 "/></g></g></g><g fill="#ffffff" fill-opacity="1"><g transform="translate(68.1383, 21.123562)"><g><path d="M 5.546875 -10.71875 C 6.878906 -10.71875 7.867188 -10.546875 8.515625 -10.203125 C 9.160156 -9.859375 9.566406 -9.40625 9.734375 -8.84375 C 9.910156 -8.289062 9.988281 -7.554688 9.96875 -6.640625 L 9.953125 -3.578125 C 9.941406 -2.617188 9.972656 -1.921875 10.046875 -1.484375 C 10.128906 -1.054688 10.300781 -0.5625 10.5625 0 L 7.828125 0 C 7.765625 -0.144531 7.644531 -0.53125 7.46875 -1.15625 C 6.96875 -0.664062 6.453125 -0.304688 5.921875 -0.078125 C 5.390625 0.140625 4.816406 0.25 4.203125 0.25 C 3.171875 0.25 2.332031 -0.0351562 1.6875 -0.609375 C 1.050781 -1.191406 0.734375 -1.941406 0.734375 -2.859375 C 0.734375 -3.617188 0.921875 -4.222656 1.296875 -4.671875 C 1.679688 -5.128906 2.148438 -5.457031 2.703125 -5.65625 C 3.265625 -5.863281 3.921875 -6.039062 4.671875 -6.1875 C 5.835938 -6.40625 6.695312 -6.625 7.25 -6.84375 L 7.25 -7.28125 C 7.25 -7.738281 7.113281 -8.070312 6.84375 -8.28125 C 6.570312 -8.488281 6.078125 -8.59375 5.359375 -8.59375 C 4.804688 -8.59375 4.394531 -8.484375 4.125 -8.265625 C 3.851562 -8.046875 3.648438 -7.71875 3.515625 -7.28125 L 1.015625 -7.75 C 1.285156 -8.769531 1.769531 -9.519531 2.46875 -10 C 3.164062 -10.476562 4.191406 -10.71875 5.546875 -10.71875 Z M 5.5 -4.59375 L 5.03125 -4.484375 C 4.007812 -4.273438 3.5 -3.832031 3.5 -3.15625 C 3.5 -2.75 3.644531 -2.40625 3.9375 -2.125 C 4.226562 -1.851562 4.59375 -1.71875 5.03125 -1.71875 C 5.394531 -1.71875 5.757812 -1.8125 6.125 -2 C 6.488281 -2.1875 6.773438 -2.4375 6.984375 -2.75 C 7.160156 -3.03125 7.25 -3.515625 7.25 -4.203125 L 7.25 -5.03125 C 6.71875 -4.875 6.132812 -4.726562 5.5 -4.59375 Z M 5.5 -4.59375 "/></g></g></g><g fill="#ffffff" fill-opacity="1"><g transform="translate(78.067655, 21.123562)"><g><path d="M 7.21875 -10.71875 C 7.988281 -10.71875 8.707031 -10.507812 9.375 -10.09375 C 10.039062 -9.675781 10.578125 -9.046875 10.984375 -8.203125 C 11.398438 -7.367188 11.609375 -6.347656 11.609375 -5.140625 C 11.609375 -3.960938 11.410156 -2.96875 11.015625 -2.15625 C 10.617188 -1.351562 10.085938 -0.75 9.421875 -0.34375 C 8.753906 0.0507812 8.015625 0.25 7.203125 0.25 C 6.015625 0.25 4.992188 -0.238281 4.140625 -1.21875 L 4.140625 3.984375 L 1.375 3.984375 L 1.375 -10.484375 L 3.96875 -10.484375 L 3.96875 -8.9375 L 4 -8.9375 C 4.320312 -9.425781 4.769531 -9.84375 5.34375 -10.1875 C 5.925781 -10.539062 6.550781 -10.71875 7.21875 -10.71875 Z M 4.34375 -6.796875 C 4.195312 -6.367188 4.125 -5.773438 4.125 -5.015625 C 4.125 -3.972656 4.34375 -3.1875 4.78125 -2.65625 C 5.21875 -2.132812 5.773438 -1.875 6.453125 -1.875 C 7.273438 -1.875 7.863281 -2.195312 8.21875 -2.84375 C 8.582031 -3.5 8.765625 -4.304688 8.765625 -5.265625 C 8.765625 -6.378906 8.550781 -7.195312 8.125 -7.71875 C 7.695312 -8.25 7.164062 -8.515625 6.53125 -8.515625 C 6.0625 -8.515625 5.628906 -8.363281 5.234375 -8.0625 C 4.835938 -7.769531 4.539062 -7.347656 4.34375 -6.796875 Z M 4.34375 -6.796875 "/></g></g></g><g fill="#ffffff" fill-opacity="1"><g transform="translate(89.109336, 21.123562)"><g><path d="M 4.375 -10.484375 L 6.25 -10.484375 L 6.25 -8.28125 L 4.375 -8.28125 L 4.375 -3.65625 C 4.375 -3.21875 4.390625 -2.890625 4.421875 -2.671875 C 4.453125 -2.453125 4.519531 -2.296875 4.625 -2.203125 C 4.738281 -2.109375 4.910156 -2.0625 5.140625 -2.0625 C 5.421875 -2.0625 5.789062 -2.148438 6.25 -2.328125 L 6.5 -0.1875 C 6.207031 -0.0507812 5.859375 0.0507812 5.453125 0.125 C 5.054688 0.207031 4.675781 0.25 4.3125 0.25 C 3.78125 0.25 3.3125 0.160156 2.90625 -0.015625 C 2.507812 -0.191406 2.210938 -0.429688 2.015625 -0.734375 C 1.816406 -1.066406 1.691406 -1.4375 1.640625 -1.84375 C 1.597656 -2.257812 1.578125 -2.78125 1.578125 -3.40625 L 1.578125 -8.28125 L 0.296875 -8.28125 L 0.296875 -10.484375 L 1.578125 -10.484375 L 1.578125 -12.5625 L 4.375 -14.203125 Z M 4.375 -10.484375 "/></g></g></g><g fill="#ffffff" fill-opacity="1"><g transform="translate(94.528679, 21.123562)"><g><path d="M 5.578125 -3.03125 L 5.625 -3.03125 L 8.046875 -10.484375 L 10.921875 -10.484375 L 7.21875 -0.390625 L 6.984375 0.328125 C 6.628906 1.304688 6.3125 2.046875 6.03125 2.546875 C 5.757812 3.054688 5.359375 3.46875 4.828125 3.78125 C 4.296875 4.09375 3.5625 4.25 2.625 4.25 C 2.070312 4.25 1.546875 4.195312 1.046875 4.09375 L 0.8125 1.921875 C 1.28125 2.003906 1.664062 2.046875 1.96875 2.046875 C 2.539062 2.046875 2.984375 1.894531 3.296875 1.59375 C 3.617188 1.289062 3.894531 0.765625 4.125 0.015625 L 0.140625 -10.484375 L 3.09375 -10.484375 Z M 5.578125 -3.03125 "/></g></g></g></svg>