<svg xmlns="http://www.w3.org/2000/svg" xmlns:xlink="http://www.w3.org/1999/xlink" width="150" zoomAndPan="magnify" viewBox="0 0 112.5 30.000001" height="40" preserveAspectRatio="xMidYMid meet" version="1.0"><defs><clipPath id="77cbee03cf"><path d="M 7.078125 1.632812 L 32.464844 1.632812 L 32.464844 27.1875 L 7.078125 27.1875 Z M 7.078125 1.632812 " clip-rule="nonzero"/></clipPath><clipPath id="771d5e2524"><path d="M 12.183594 1.632812 L 27.363281 1.632812 C 30.183594 1.632812 32.464844 3.925781 32.464844 6.75 L 32.464844 22.074219 C 32.464844 24.898438 30.183594 27.1875 27.363281 27.1875 L 12.183594 27.1875 C 9.363281 27.1875 7.078125 24.898438 7.078125 22.074219 L 7.078125 6.75 C 7.078125 3.925781 9.363281 1.632812 12.183594 1.632812 Z M 12.183594 1.632812 " clip-rule="nonzero"/></clipPath><radialGradient gradientTransform="matrix(0.996785, 0, 0, 1.003215, 7.077579, 1.635134)" gradientUnits="userSpaceOnUse" r="18.010715" cx="12.735607" id="d92cca4771" cy="12.735607" fx="12.735607" fy="12.735607"><stop stop-opacity="1" stop-color="rgb(100%, 56.507874%, 30.003357%)" offset="0"/><stop stop-opacity="1" stop-color="rgb(100%, 55.917358%, 29.803467%)" offset="0.00390625"/><stop stop-opacity="1" stop-color="rgb(100%, 55.522156%, 29.612732%)" offset="0.0078125"/><stop stop-opacity="1" stop-color="rgb(100%, 55.131531%, 29.232788%)" offset="0.0117188"/><stop stop-opacity="1" stop-color="rgb(100%, 54.740906%, 29.017639%)" offset="0.015625"/><stop stop-opacity="1" stop-color="rgb(100%, 54.299927%, 28.77655%)" offset="0.0195312"/><stop stop-opacity="1" stop-color="rgb(100%, 53.860474%, 28.37677%)" offset="0.0234375"/><stop stop-opacity="1" stop-color="rgb(100%, 53.456116%, 28.186035%)" offset="0.0273438"/><stop stop-opacity="1" stop-color="rgb(100%, 52.867126%, 27.986145%)" offset="0.03125"/><stop stop-opacity="1" stop-color="rgb(100%, 52.339172%, 27.796936%)" offset="0.0351562"/><stop stop-opacity="1" stop-color="rgb(100%, 51.997375%, 27.6474%)" offset="0.0390625"/><stop stop-opacity="1" stop-color="rgb(100%, 51.60675%, 27.305603%)" offset="0.0429688"/><stop stop-opacity="1" stop-color="rgb(100%, 51.216125%, 27.105713%)" offset="0.046875"/><stop stop-opacity="1" stop-color="rgb(100%, 50.8255%, 26.914978%)" offset="0.0507812"/><stop stop-opacity="1" stop-color="rgb(100%, 50.434875%, 26.715088%)" offset="0.0546875"/><stop stop-opacity="1" stop-color="rgb(100%, 50.04425%, 26.524353%)" offset="0.0585938"/><stop stop-opacity="1" stop-color="rgb(100%, 49.403381%, 26.123047%)" offset="0.0625"/><stop stop-opacity="1" stop-color="rgb(100%, 48.764038%, 25.883484%)" offset="0.0664062"/><stop stop-opacity="1" stop-color="rgb(100%, 48.373413%, 25.683594%)" offset="0.0703125"/><stop stop-opacity="1" stop-color="rgb(100%, 47.984314%, 25.492859%)" offset="0.0742188"/><stop stop-opacity="1" stop-color="rgb(100%, 47.642517%, 25.291443%)" offset="0.078125"/><stop stop-opacity="1" stop-color="rgb(100%, 47.30072%, 24.900818%)" offset="0.0820312"/><stop stop-opacity="1" stop-color="rgb(100%, 46.910095%, 24.702454%)" offset="0.0859375"/><stop stop-opacity="1" stop-color="rgb(100%, 46.51947%, 24.511719%)" offset="0.0898438"/><stop stop-opacity="1" stop-color="rgb(100%, 45.94574%, 24.311829%)" offset="0.09375"/><stop stop-opacity="1" stop-color="rgb(100%, 45.355225%, 24.121094%)" offset="0.0976562"/><stop stop-opacity="1" stop-color="rgb(100%, 44.897461%, 23.719788%)" offset="0.101562"/><stop stop-opacity="1" stop-color="rgb(100%, 44.456482%, 23.480225%)" offset="0.105469"/><stop stop-opacity="1" stop-color="rgb(100%, 44.065857%, 23.280334%)" offset="0.109375"/><stop stop-opacity="1" stop-color="rgb(100%, 43.675232%, 23.0896%)" offset="0.113281"/><stop stop-opacity="1" stop-color="rgb(100%, 43.284607%, 22.886658%)" offset="0.117188"/><stop stop-opacity="1" stop-color="rgb(100%, 42.893982%, 22.546387%)" offset="0.121094"/><stop stop-opacity="1" stop-color="rgb(100%, 42.356873%, 22.399902%)" offset="0.125"/><stop stop-opacity="1" stop-color="rgb(100%, 41.816711%, 22.209167%)" offset="0.128906"/><stop stop-opacity="1" stop-color="rgb(100%, 41.423035%, 22.007751%)" offset="0.132812"/><stop stop-opacity="1" stop-color="rgb(100%, 41.03241%, 21.817017%)" offset="0.136719"/><stop stop-opacity="1" stop-color="rgb(100%, 40.641785%, 21.44165%)" offset="0.140625"/><stop stop-opacity="1" stop-color="rgb(100%, 40.200806%, 21.200562%)" offset="0.144531"/><stop stop-opacity="1" stop-color="rgb(100%, 39.759827%, 20.976257%)" offset="0.148438"/><stop stop-opacity="1" stop-color="rgb(100%, 39.356995%, 20.787048%)" offset="0.152344"/><stop stop-opacity="1" stop-color="rgb(100%, 38.766479%, 20.579529%)" offset="0.15625"/><stop stop-opacity="1" stop-color="rgb(100%, 38.188171%, 20.191956%)" offset="0.160156"/><stop stop-opacity="1" stop-color="rgb(100%, 37.797546%, 19.999695%)" offset="0.164062"/><stop stop-opacity="1" stop-color="rgb(100%, 37.45575%, 19.805908%)" offset="0.167969"/><stop stop-opacity="1" stop-color="rgb(100%, 37.115479%, 19.606018%)" offset="0.171875"/><stop stop-opacity="1" stop-color="rgb(100%, 36.726379%, 19.415283%)" offset="0.175781"/><stop stop-opacity="1" stop-color="rgb(100%, 36.335754%, 19.035339%)" offset="0.179688"/><stop stop-opacity="1" stop-color="rgb(100%, 35.945129%, 18.818665%)" offset="0.183594"/><stop stop-opacity="1" stop-color="rgb(100%, 35.30426%, 18.598938%)" offset="0.1875"/><stop stop-opacity="1" stop-color="rgb(100%, 34.663391%, 18.383789%)" offset="0.191406"/><stop stop-opacity="1" stop-color="rgb(100%, 34.272766%, 18.173218%)" offset="0.195312"/><stop stop-opacity="1" stop-color="rgb(100%, 33.882141%, 17.788696%)" offset="0.199219"/><stop stop-opacity="1" stop-color="rgb(100%, 33.491516%, 17.597961%)" offset="0.203125"/><stop stop-opacity="1" stop-color="rgb(100%, 33.100891%, 17.449951%)" offset="0.207031"/><stop stop-opacity="1" stop-color="rgb(100%, 32.710266%, 17.300415%)" offset="0.210938"/><stop stop-opacity="1" stop-color="rgb(100%, 32.17926%, 17.111206%)" offset="0.214844"/><stop stop-opacity="1" stop-color="rgb(100%, 31.637573%, 16.72821%)" offset="0.21875"/><stop stop-opacity="1" stop-color="rgb(100%, 31.237793%, 16.516113%)" offset="0.222656"/><stop stop-opacity="1" stop-color="rgb(100%, 30.796814%, 16.299438%)" offset="0.226562"/><stop stop-opacity="1" stop-color="rgb(100%, 30.357361%, 16.079712%)" offset="0.230469"/><stop stop-opacity="1" stop-color="rgb(99.984741%, 29.966736%, 15.866089%)" offset="0.234375"/><stop stop-opacity="1" stop-color="rgb(99.784851%, 29.576111%, 15.484619%)" offset="0.238281"/><stop stop-opacity="1" stop-color="rgb(99.598694%, 29.180908%, 15.293884%)" offset="0.242188"/><stop stop-opacity="1" stop-color="rgb(99.598694%, 28.590393%, 15.093994%)" offset="0.246094"/><stop stop-opacity="1" stop-color="rgb(99.598694%, 28.004456%, 14.898682%)" offset="0.25"/><stop stop-opacity="1" stop-color="rgb(99.598694%, 27.661133%, 14.707947%)" offset="0.253906"/><stop stop-opacity="1" stop-color="rgb(99.598694%, 27.319336%, 14.323425%)" offset="0.257812"/><stop stop-opacity="1" stop-color="rgb(99.598694%, 26.931763%, 14.112854%)" offset="0.261719"/><stop stop-opacity="1" stop-color="rgb(99.598694%, 26.541138%, 13.922119%)" offset="0.265625"/><stop stop-opacity="1" stop-color="rgb(99.598694%, 26.100159%, 13.700867%)" offset="0.269531"/><stop stop-opacity="1" stop-color="rgb(99.598694%, 25.642395%, 13.459778%)" offset="0.273438"/><stop stop-opacity="1" stop-color="rgb(99.598694%, 25.05188%, 13.08136%)" offset="0.277344"/><stop stop-opacity="1" stop-color="rgb(99.598694%, 24.479675%, 12.890625%)" offset="0.28125"/><stop stop-opacity="1" stop-color="rgb(99.598694%, 24.08905%, 12.690735%)" offset="0.285156"/><stop stop-opacity="1" stop-color="rgb(99.598694%, 23.698425%, 12.5%)" offset="0.289062"/><stop stop-opacity="1" stop-color="rgb(99.598694%, 23.3078%, 12.353516%)" offset="0.292969"/><stop stop-opacity="1" stop-color="rgb(99.598694%, 22.917175%, 12.014771%)" offset="0.296875"/><stop stop-opacity="1" stop-color="rgb(99.598694%, 22.572327%, 11.810303%)" offset="0.300781"/><stop stop-opacity="1" stop-color="rgb(99.598694%, 22.23053%, 11.619568%)" offset="0.304688"/><stop stop-opacity="1" stop-color="rgb(99.598694%, 21.669006%, 11.419678%)" offset="0.308594"/><stop stop-opacity="1" stop-color="rgb(99.598694%, 21.028137%, 11.178589%)" offset="0.3125"/><stop stop-opacity="1" stop-color="rgb(99.598694%, 20.562744%, 10.778809%)" offset="0.316406"/><stop stop-opacity="1" stop-color="rgb(99.598694%, 20.172119%, 10.588074%)" offset="0.320312"/><stop stop-opacity="1" stop-color="rgb(99.598694%, 19.781494%, 10.388184%)" offset="0.324219"/><stop stop-opacity="1" stop-color="rgb(99.598694%, 19.390869%, 10.197449%)" offset="0.328125"/><stop stop-opacity="1" stop-color="rgb(99.598694%, 19.000244%, 10.00061%)" offset="0.332031"/><stop stop-opacity="1" stop-color="rgb(99.598694%, 18.609619%, 9.609985%)" offset="0.335938"/><stop stop-opacity="1" stop-color="rgb(99.598694%, 18.031311%, 9.407043%)" offset="0.339844"/><stop stop-opacity="1" stop-color="rgb(99.598694%, 17.486572%, 9.216309%)" offset="0.34375"/><stop stop-opacity="1" stop-color="rgb(99.598694%, 17.134094%, 9.016418%)" offset="0.347656"/><stop stop-opacity="1" stop-color="rgb(99.598694%, 16.697693%, 8.77533%)" offset="0.351562"/><stop stop-opacity="1" stop-color="rgb(99.598694%, 16.256714%, 8.375549%)" offset="0.355469"/><stop stop-opacity="1" stop-color="rgb(99.598694%, 15.866089%, 8.184814%)" offset="0.359375"/><stop stop-opacity="1" stop-color="rgb(99.598694%, 15.475464%, 7.984924%)" offset="0.363281"/><stop stop-opacity="1" stop-color="rgb(99.598694%, 15.080261%, 7.795715%)" offset="0.367188"/><stop stop-opacity="1" stop-color="rgb(99.598694%, 14.489746%, 7.646179%)" offset="0.371094"/><stop stop-opacity="1" stop-color="rgb(99.598694%, 13.903809%, 7.304382%)" offset="0.375"/><stop stop-opacity="1" stop-color="rgb(99.598694%, 13.513184%, 7.104492%)" offset="0.378906"/><stop stop-opacity="1" stop-color="rgb(99.598694%, 13.122559%, 6.913757%)" offset="0.382812"/><stop stop-opacity="1" stop-color="rgb(99.598694%, 12.731934%, 6.712341%)" offset="0.386719"/><stop stop-opacity="1" stop-color="rgb(99.598694%, 12.385559%, 6.521606%)" offset="0.390625"/><stop stop-opacity="1" stop-color="rgb(99.598694%, 11.994934%, 6.121826%)" offset="0.394531"/><stop stop-opacity="1" stop-color="rgb(99.598694%, 11.543274%, 5.882263%)" offset="0.398438"/><stop stop-opacity="1" stop-color="rgb(99.598694%, 10.952759%, 5.682373%)" offset="0.402344"/><stop stop-opacity="1" stop-color="rgb(99.598694%, 10.379028%, 5.491638%)" offset="0.40625"/><stop stop-opacity="1" stop-color="rgb(99.598694%, 9.988403%, 5.288696%)" offset="0.410156"/><stop stop-opacity="1" stop-color="rgb(99.598694%, 9.597778%, 4.898071%)" offset="0.414062"/><stop stop-opacity="1" stop-color="rgb(99.598694%, 9.207153%, 4.701233%)" offset="0.417969"/><stop stop-opacity="1" stop-color="rgb(99.598694%, 8.816528%, 4.510498%)" offset="0.421875"/><stop stop-opacity="1" stop-color="rgb(99.598694%, 8.425903%, 4.310608%)" offset="0.425781"/><stop stop-opacity="1" stop-color="rgb(99.598694%, 8.035278%, 4.119873%)" offset="0.429688"/><stop stop-opacity="1" stop-color="rgb(99.598694%, 7.513428%, 3.744507%)" offset="0.433594"/><stop stop-opacity="1" stop-color="rgb(99.598694%, 6.922913%, 3.503418%)" offset="0.4375"/><stop stop-opacity="1" stop-color="rgb(99.598694%, 6.463623%, 3.279114%)" offset="0.441406"/><stop stop-opacity="1" stop-color="rgb(99.598694%, 6.072998%, 3.088379%)" offset="0.445312"/><stop stop-opacity="1" stop-color="rgb(99.598694%, 5.682373%, 2.883911%)" offset="0.449219"/><stop stop-opacity="1" stop-color="rgb(99.598694%, 5.291748%, 2.54364%)" offset="0.453125"/><stop stop-opacity="1" stop-color="rgb(99.598694%, 4.901123%, 2.398682%)" offset="0.457031"/><stop stop-opacity="1" stop-color="rgb(99.598694%, 4.510498%, 2.206421%)" offset="0.460938"/><stop stop-opacity="1" stop-color="rgb(99.598694%, 3.93219%, 2.006531%)" offset="0.464844"/><stop stop-opacity="1" stop-color="rgb(99.598694%, 3.341675%, 1.815796%)" offset="0.46875"/><stop stop-opacity="1" stop-color="rgb(99.598694%, 2.938843%, 1.438904%)" offset="0.472656"/><stop stop-opacity="1" stop-color="rgb(99.598694%, 2.548218%, 1.197815%)" offset="0.476562"/><stop stop-opacity="1" stop-color="rgb(99.598694%, 2.157593%, 0.975037%)" offset="0.480469"/><stop stop-opacity="1" stop-color="rgb(99.598694%, 1.766968%, 0.784302%)" offset="0.484375"/><stop stop-opacity="1" stop-color="rgb(99.598694%, 1.376343%, 0.575256%)" offset="0.488281"/><stop stop-opacity="1" stop-color="rgb(99.598694%, 0.990295%, 0.189209%)" offset="0.492188"/><stop stop-opacity="1" stop-color="rgb(99.598694%, 0.994873%, 0.193787%)" offset="0.5"/><stop stop-opacity="1" stop-color="rgb(99.598694%, 1.385498%, 0.584412%)" offset="0.503906"/><stop stop-opacity="1" stop-color="rgb(99.598694%, 1.776123%, 0.788879%)" offset="0.507812"/><stop stop-opacity="1" stop-color="rgb(99.598694%, 2.166748%, 0.979614%)" offset="0.511719"/><stop stop-opacity="1" stop-color="rgb(99.598694%, 2.513123%, 1.179504%)" offset="0.515625"/><stop stop-opacity="1" stop-color="rgb(99.598694%, 2.903748%, 1.420593%)" offset="0.519531"/><stop stop-opacity="1" stop-color="rgb(99.598694%, 3.355408%, 1.820374%)" offset="0.523438"/><stop stop-opacity="1" stop-color="rgb(99.598694%, 3.945923%, 2.011108%)" offset="0.527344"/><stop stop-opacity="1" stop-color="rgb(99.598694%, 4.519653%, 2.210999%)" offset="0.53125"/><stop stop-opacity="1" stop-color="rgb(99.598694%, 4.910278%, 2.400208%)" offset="0.535156"/><stop stop-opacity="1" stop-color="rgb(99.598694%, 5.300903%, 2.549744%)" offset="0.539062"/><stop stop-opacity="1" stop-color="rgb(99.598694%, 5.691528%, 2.891541%)" offset="0.542969"/><stop stop-opacity="1" stop-color="rgb(99.598694%, 6.082153%, 3.092957%)" offset="0.546875"/><stop stop-opacity="1" stop-color="rgb(99.598694%, 6.472778%, 3.283691%)" offset="0.550781"/><stop stop-opacity="1" stop-color="rgb(99.598694%, 6.863403%, 3.483582%)" offset="0.554688"/><stop stop-opacity="1" stop-color="rgb(99.598694%, 7.385254%, 3.674316%)" offset="0.558594"/><stop stop-opacity="1" stop-color="rgb(99.598694%, 7.975769%, 4.074097%)" offset="0.5625"/><stop stop-opacity="1" stop-color="rgb(99.598694%, 8.435059%, 4.315186%)" offset="0.566406"/><stop stop-opacity="1" stop-color="rgb(99.598694%, 8.825684%, 4.515076%)" offset="0.570312"/><stop stop-opacity="1" stop-color="rgb(99.598694%, 9.216309%, 4.705811%)" offset="0.574219"/><stop stop-opacity="1" stop-color="rgb(99.598694%, 9.606934%, 4.907227%)" offset="0.578125"/><stop stop-opacity="1" stop-color="rgb(99.598694%, 9.997559%, 5.297852%)" offset="0.582031"/><stop stop-opacity="1" stop-color="rgb(99.598694%, 10.388184%, 5.496216%)" offset="0.585938"/><stop stop-opacity="1" stop-color="rgb(99.598694%, 10.966492%, 5.686951%)" offset="0.589844"/><stop stop-opacity="1" stop-color="rgb(99.598694%, 11.557007%, 5.886841%)" offset="0.59375"/><stop stop-opacity="1" stop-color="rgb(99.598694%, 11.959839%, 6.077576%)" offset="0.597656"/><stop stop-opacity="1" stop-color="rgb(99.598694%, 12.350464%, 6.477356%)" offset="0.601562"/><stop stop-opacity="1" stop-color="rgb(99.598694%, 12.741089%, 6.716919%)" offset="0.605469"/><stop stop-opacity="1" stop-color="rgb(99.598694%, 13.131714%, 6.918335%)" offset="0.609375"/><stop stop-opacity="1" stop-color="rgb(99.598694%, 13.522339%, 7.10907%)" offset="0.613281"/><stop stop-opacity="1" stop-color="rgb(99.598694%, 13.917542%, 7.312012%)" offset="0.617188"/><stop stop-opacity="1" stop-color="rgb(99.598694%, 14.508057%, 7.652283%)" offset="0.621094"/><stop stop-opacity="1" stop-color="rgb(99.598694%, 15.093994%, 7.798767%)" offset="0.625"/><stop stop-opacity="1" stop-color="rgb(99.598694%, 15.484619%, 7.989502%)" offset="0.628906"/><stop stop-opacity="1" stop-color="rgb(99.598694%, 15.875244%, 8.189392%)" offset="0.632812"/><stop stop-opacity="1" stop-color="rgb(99.598694%, 16.265869%, 8.380127%)" offset="0.636719"/><stop stop-opacity="1" stop-color="rgb(99.598694%, 16.656494%, 8.757019%)" offset="0.640625"/><stop stop-opacity="1" stop-color="rgb(99.598694%, 17.09137%, 8.996582%)" offset="0.644531"/><stop stop-opacity="1" stop-color="rgb(99.598694%, 17.500305%, 9.220886%)" offset="0.648438"/><stop stop-opacity="1" stop-color="rgb(99.598694%, 18.04657%, 9.411621%)" offset="0.652344"/><stop stop-opacity="1" stop-color="rgb(99.598694%, 18.6203%, 9.619141%)" offset="0.65625"/><stop stop-opacity="1" stop-color="rgb(99.598694%, 19.010925%, 10.006714%)" offset="0.660156"/><stop stop-opacity="1" stop-color="rgb(99.598694%, 19.40155%, 10.198975%)" offset="0.664062"/><stop stop-opacity="1" stop-color="rgb(99.598694%, 19.792175%, 10.392761%)" offset="0.667969"/><stop stop-opacity="1" stop-color="rgb(99.598694%, 20.1828%, 10.592651%)" offset="0.671875"/><stop stop-opacity="1" stop-color="rgb(99.598694%, 20.573425%, 10.783386%)" offset="0.675781"/><stop stop-opacity="1" stop-color="rgb(99.598694%, 20.96405%, 11.16333%)" offset="0.679688"/><stop stop-opacity="1" stop-color="rgb(99.598694%, 21.528625%, 11.378479%)" offset="0.683594"/><stop stop-opacity="1" stop-color="rgb(99.598694%, 22.164917%, 11.599731%)" offset="0.6875"/><stop stop-opacity="1" stop-color="rgb(99.598694%, 22.579956%, 11.81488%)" offset="0.691406"/><stop stop-opacity="1" stop-color="rgb(99.598694%, 22.926331%, 12.0224%)" offset="0.695312"/><stop stop-opacity="1" stop-color="rgb(99.598694%, 23.316956%, 12.358093%)" offset="0.699219"/><stop stop-opacity="1" stop-color="rgb(99.598694%, 23.707581%, 12.501526%)" offset="0.703125"/><stop stop-opacity="1" stop-color="rgb(99.598694%, 24.098206%, 12.698364%)" offset="0.707031"/><stop stop-opacity="1" stop-color="rgb(99.598694%, 24.488831%, 12.896729%)" offset="0.710938"/><stop stop-opacity="1" stop-color="rgb(99.598694%, 25.065613%, 13.085938%)" offset="0.714844"/><stop stop-opacity="1" stop-color="rgb(99.598694%, 25.656128%, 13.468933%)" offset="0.71875"/><stop stop-opacity="1" stop-color="rgb(99.598694%, 26.060486%, 13.68103%)" offset="0.722656"/><stop stop-opacity="1" stop-color="rgb(99.598694%, 26.499939%, 13.899231%)" offset="0.726562"/><stop stop-opacity="1" stop-color="rgb(99.598694%, 26.940918%, 14.117432%)" offset="0.730469"/><stop stop-opacity="1" stop-color="rgb(99.598694%, 27.328491%, 14.332581%)" offset="0.734375"/><stop stop-opacity="1" stop-color="rgb(99.598694%, 27.668762%, 14.712524%)" offset="0.738281"/><stop stop-opacity="1" stop-color="rgb(99.598694%, 28.018188%, 14.903259%)" offset="0.742188"/><stop stop-opacity="1" stop-color="rgb(99.598694%, 28.608704%, 15.104675%)" offset="0.746094"/><stop stop-opacity="1" stop-color="rgb(99.598694%, 29.194641%, 15.299988%)" offset="0.75"/><stop stop-opacity="1" stop-color="rgb(99.789429%, 29.585266%, 15.489197%)" offset="0.753906"/><stop stop-opacity="1" stop-color="rgb(99.989319%, 29.975891%, 15.875244%)" offset="0.757812"/><stop stop-opacity="1" stop-color="rgb(100%, 30.366516%, 16.08429%)" offset="0.761719"/><stop stop-opacity="1" stop-color="rgb(100%, 30.757141%, 16.275024%)" offset="0.765625"/><stop stop-opacity="1" stop-color="rgb(100%, 31.196594%, 16.497803%)" offset="0.769531"/><stop stop-opacity="1" stop-color="rgb(100%, 31.64978%, 16.738892%)" offset="0.773438"/><stop stop-opacity="1" stop-color="rgb(100%, 32.191467%, 17.115784%)" offset="0.777344"/><stop stop-opacity="1" stop-color="rgb(100%, 32.719421%, 17.304993%)" offset="0.78125"/><stop stop-opacity="1" stop-color="rgb(100%, 33.110046%, 17.454529%)" offset="0.785156"/><stop stop-opacity="1" stop-color="rgb(100%, 33.500671%, 17.599487%)" offset="0.789062"/><stop stop-opacity="1" stop-color="rgb(100%, 33.891296%, 17.793274%)" offset="0.792969"/><stop stop-opacity="1" stop-color="rgb(100%, 34.281921%, 18.182373%)" offset="0.796875"/><stop stop-opacity="1" stop-color="rgb(100%, 34.672546%, 18.388367%)" offset="0.800781"/><stop stop-opacity="1" stop-color="rgb(100%, 35.243225%, 18.579102%)" offset="0.804688"/><stop stop-opacity="1" stop-color="rgb(100%, 35.83374%, 18.778992%)" offset="0.808594"/><stop stop-opacity="1" stop-color="rgb(100%, 36.294556%, 19.018555%)" offset="0.8125"/><stop stop-opacity="1" stop-color="rgb(100%, 36.735535%, 19.419861%)" offset="0.816406"/><stop stop-opacity="1" stop-color="rgb(100%, 37.123108%, 19.610596%)" offset="0.820312"/><stop stop-opacity="1" stop-color="rgb(100%, 37.463379%, 19.810486%)" offset="0.824219"/><stop stop-opacity="1" stop-color="rgb(100%, 37.806702%, 20.001221%)" offset="0.828125"/><stop stop-opacity="1" stop-color="rgb(100%, 38.197327%, 20.198059%)" offset="0.832031"/><stop stop-opacity="1" stop-color="rgb(100%, 38.780212%, 20.588684%)" offset="0.835938"/><stop stop-opacity="1" stop-color="rgb(100%, 39.370728%, 20.791626%)" offset="0.839844"/><stop stop-opacity="1" stop-color="rgb(100%, 39.768982%, 20.982361%)" offset="0.84375"/><stop stop-opacity="1" stop-color="rgb(100%, 40.159607%, 21.182251%)" offset="0.847656"/><stop stop-opacity="1" stop-color="rgb(100%, 40.600586%, 21.421814%)" offset="0.851562"/><stop stop-opacity="1" stop-color="rgb(100%, 41.041565%, 21.821594%)" offset="0.855469"/><stop stop-opacity="1" stop-color="rgb(100%, 41.43219%, 22.012329%)" offset="0.859375"/><stop stop-opacity="1" stop-color="rgb(100%, 41.828918%, 22.213745%)" offset="0.863281"/><stop stop-opacity="1" stop-color="rgb(100%, 42.370605%, 22.402954%)" offset="0.867188"/><stop stop-opacity="1" stop-color="rgb(100%, 42.904663%, 22.55249%)" offset="0.871094"/><stop stop-opacity="1" stop-color="rgb(100%, 43.295288%, 22.894287%)" offset="0.875"/><stop stop-opacity="1" stop-color="rgb(100%, 43.685913%, 23.094177%)" offset="0.878906"/><stop stop-opacity="1" stop-color="rgb(100%, 44.076538%, 23.284912%)" offset="0.882812"/><stop stop-opacity="1" stop-color="rgb(100%, 44.467163%, 23.484802%)" offset="0.886719"/><stop stop-opacity="1" stop-color="rgb(100%, 44.857788%, 23.675537%)" offset="0.890625"/><stop stop-opacity="1" stop-color="rgb(100%, 45.320129%, 24.075317%)" offset="0.894531"/><stop stop-opacity="1" stop-color="rgb(100%, 45.959473%, 24.316406%)" offset="0.898438"/><stop stop-opacity="1" stop-color="rgb(100%, 46.528625%, 24.516296%)" offset="0.902344"/><stop stop-opacity="1" stop-color="rgb(100%, 46.91925%, 24.707031%)" offset="0.90625"/><stop stop-opacity="1" stop-color="rgb(100%, 47.30835%, 24.909973%)" offset="0.910156"/><stop stop-opacity="1" stop-color="rgb(100%, 47.650146%, 25.300598%)" offset="0.914062"/><stop stop-opacity="1" stop-color="rgb(100%, 47.991943%, 25.497437%)" offset="0.917969"/><stop stop-opacity="1" stop-color="rgb(100%, 48.382568%, 25.688171%)" offset="0.921875"/><stop stop-opacity="1" stop-color="rgb(100%, 48.773193%, 25.888062%)" offset="0.925781"/><stop stop-opacity="1" stop-color="rgb(100%, 49.342346%, 26.078796%)" offset="0.929688"/><stop stop-opacity="1" stop-color="rgb(100%, 49.932861%, 26.454163%)" offset="0.933594"/><stop stop-opacity="1" stop-color="rgb(100%, 50.393677%, 26.693726%)" offset="0.9375"/><stop stop-opacity="1" stop-color="rgb(100%, 50.834656%, 26.919556%)" offset="0.941406"/><stop stop-opacity="1" stop-color="rgb(100%, 51.225281%, 27.110291%)" offset="0.945312"/><stop stop-opacity="1" stop-color="rgb(100%, 51.615906%, 27.314758%)" offset="0.949219"/><stop stop-opacity="1" stop-color="rgb(100%, 52.006531%, 27.653503%)" offset="0.953125"/><stop stop-opacity="1" stop-color="rgb(100%, 52.348328%, 27.799988%)" offset="0.957031"/><stop stop-opacity="1" stop-color="rgb(100%, 52.880859%, 27.990723%)" offset="0.960938"/><stop stop-opacity="1" stop-color="rgb(100%, 53.471375%, 28.190613%)" offset="0.964844"/><stop stop-opacity="1" stop-color="rgb(100%, 53.869629%, 28.381348%)" offset="0.96875"/><stop stop-opacity="1" stop-color="rgb(100%, 54.260254%, 28.759766%)" offset="0.972656"/><stop stop-opacity="1" stop-color="rgb(100%, 54.699707%, 29.000854%)" offset="0.976562"/><stop stop-opacity="1" stop-color="rgb(100%, 55.140686%, 29.241943%)" offset="0.980469"/><stop stop-opacity="1" stop-color="rgb(100%, 55.531311%, 29.61731%)" offset="0.984375"/><stop stop-opacity="1" stop-color="rgb(100%, 55.931091%, 29.808044%)" offset="0.988281"/><stop stop-opacity="1" stop-color="rgb(100%, 56.517029%, 30.007935%)" offset="0.992188"/><stop stop-opacity="1" stop-color="rgb(100%, 56.898499%, 30.198669%)" offset="0.996094"/><stop stop-opacity="1" stop-color="rgb(100%, 56.898499%, 30.198669%)" offset="1"/></radialGradient></defs><g clip-path="url(#77cbee03cf)"><g clip-path="url(#771d5e2524)"><path fill="url(#d92cca4771)" d="M 7.078125 1.632812 L 7.078125 27.1875 L 32.464844 27.1875 L 32.464844 1.632812 Z M 7.078125 1.632812 " fill-rule="nonzero"/></g></g><path fill="#ffffff" d="M 18.636719 3.675781 C 19.070312 3.351562 19.648438 3.265625 20.171875 3.363281 C 20.800781 3.492188 21.355469 3.960938 21.574219 4.566406 C 21.710938 4.925781 21.71875 5.320312 21.652344 5.691406 C 21.503906 6.277344 21.082031 6.800781 20.515625 7.023438 C 20.382812 7.085938 20.171875 7.132812 20.1875 7.320312 C 20.179688 8.277344 20.191406 9.234375 20.191406 10.191406 C 20.199219 10.835938 20.152344 11.488281 20.304688 12.117188 C 20.449219 12.6875 20.710938 13.257812 21.160156 13.652344 C 21.273438 13.132812 21.527344 12.660156 21.75 12.179688 C 21.941406 11.808594 22.113281 11.425781 22.351562 11.082031 C 22.695312 10.570312 23.167969 10.15625 23.683594 9.828125 C 23.847656 9.71875 24.027344 9.636719 24.183594 9.515625 C 24.316406 9.414062 24.355469 9.238281 24.390625 9.082031 C 24.105469 8.632812 23.996094 8.070312 24.164062 7.5625 C 24.269531 7.175781 24.519531 6.84375 24.820312 6.585938 C 25.175781 6.269531 25.667969 6.144531 26.136719 6.15625 C 26.773438 6.179688 27.367188 6.574219 27.6875 7.121094 C 27.976562 7.65625 28.015625 8.332031 27.757812 8.886719 C 27.609375 9.203125 27.410156 9.519531 27.097656 9.695312 C 26.644531 9.992188 26.070312 10.085938 25.546875 9.9375 C 25.296875 9.847656 25.058594 10.011719 24.839844 10.109375 C 23.984375 10.570312 23.148438 11.183594 22.699219 12.070312 C 22.53125 12.394531 22.386719 12.730469 22.222656 13.058594 C 22.066406 13.390625 21.902344 13.738281 21.871094 14.109375 C 22.210938 14.296875 22.613281 14.28125 22.984375 14.277344 C 23.5 14.273438 23.988281 14.101562 24.496094 14.0625 C 25.273438 14.007812 26.050781 14.082031 26.824219 14.042969 C 26.933594 13.730469 27.054688 13.402344 27.304688 13.175781 C 27.90625 12.542969 28.964844 12.414062 29.695312 12.898438 C 30.207031 13.242188 30.570312 13.835938 30.570312 14.464844 C 30.585938 14.890625 30.4375 15.3125 30.203125 15.660156 C 29.851562 16.148438 29.253906 16.460938 28.648438 16.4375 C 28.207031 16.4375 27.785156 16.238281 27.449219 15.960938 C 27.125 15.699219 26.878906 15.339844 26.816406 14.925781 C 26.105469 14.875 25.390625 14.871094 24.675781 14.878906 C 24.179688 14.875 23.699219 15.035156 23.207031 15.074219 C 22.507812 15.136719 21.730469 15.109375 21.152344 14.65625 C 21.019531 14.8125 21.027344 15.03125 21.050781 15.222656 C 21.128906 15.65625 21.429688 16 21.730469 16.296875 C 22.527344 17.054688 23.449219 17.660156 24.300781 18.347656 C 24.585938 18.578125 24.835938 18.851562 25.132812 19.070312 C 25.613281 18.910156 26.148438 18.820312 26.636719 19 C 27.167969 19.175781 27.585938 19.601562 27.804688 20.105469 C 28.140625 20.90625 27.84375 21.929688 27.105469 22.394531 C 26.515625 22.78125 25.707031 22.820312 25.089844 22.480469 C 24.589844 22.179688 24.191406 21.671875 24.121094 21.082031 C 24.042969 20.632812 24.179688 20.183594 24.386719 19.789062 C 24.316406 19.554688 24.195312 19.332031 24 19.183594 C 23.210938 18.542969 22.382812 17.957031 21.582031 17.335938 C 20.984375 16.859375 20.476562 16.238281 20.265625 15.496094 C 20.1875 15.222656 20.117188 14.929688 20.160156 14.640625 C 20.195312 14.441406 20.367188 14.304688 20.539062 14.222656 C 20.167969 13.859375 19.851562 13.425781 19.664062 12.9375 C 19.476562 12.476562 19.425781 11.972656 19.40625 11.480469 C 19.367188 10.09375 19.375 8.707031 19.367188 7.320312 C 19.382812 7.195312 19.273438 7.128906 19.175781 7.09375 C 18.730469 6.921875 18.324219 6.617188 18.097656 6.191406 C 17.855469 5.71875 17.777344 5.140625 17.953125 4.632812 C 18.085938 4.257812 18.3125 3.910156 18.636719 3.675781 M 19.503906 4.199219 C 19.050781 4.3125 18.703125 4.746094 18.691406 5.210938 C 18.664062 5.722656 19.0625 6.191406 19.546875 6.3125 C 19.933594 6.394531 20.367188 6.261719 20.617188 5.949219 C 20.835938 5.6875 20.96875 5.320312 20.851562 4.988281 C 20.703125 4.421875 20.066406 4.046875 19.503906 4.199219 M 25.636719 7.066406 C 25.324219 7.191406 25.082031 7.472656 24.992188 7.792969 C 24.859375 8.242188 25.074219 8.746094 25.445312 9.015625 C 25.898438 9.28125 26.546875 9.179688 26.875 8.761719 C 27.132812 8.46875 27.191406 8.019531 27.019531 7.667969 C 26.804688 7.152344 26.160156 6.863281 25.636719 7.066406 M 28.324219 13.507812 C 27.941406 13.636719 27.664062 14.011719 27.625 14.410156 C 27.554688 15.050781 28.175781 15.699219 28.828125 15.585938 C 29.171875 15.53125 29.492188 15.300781 29.636719 14.984375 C 29.796875 14.632812 29.757812 14.195312 29.511719 13.886719 C 29.257812 13.511719 28.75 13.359375 28.324219 13.507812 M 25.746094 19.765625 C 25.285156 19.867188 24.960938 20.320312 24.957031 20.789062 C 24.921875 21.230469 25.21875 21.65625 25.613281 21.832031 C 26.292969 22.085938 27.140625 21.523438 27.128906 20.785156 C 27.109375 20.117188 26.386719 19.605469 25.746094 19.765625 Z M 25.746094 19.765625 " fill-opacity="1" fill-rule="nonzero"/><path fill="#ffffff" d="M 13.136719 6.191406 C 13.550781 6.113281 13.996094 6.140625 14.375 6.339844 C 14.796875 6.558594 15.15625 6.921875 15.339844 7.363281 C 15.464844 7.703125 15.484375 8.078125 15.449219 8.433594 C 15.425781 8.671875 15.304688 8.882812 15.203125 9.089844 C 15.125 9.222656 15.21875 9.363281 15.28125 9.476562 C 15.449219 9.730469 15.6875 9.925781 15.910156 10.125 C 16.699219 10.765625 17.542969 11.335938 18.296875 12.015625 C 18.824219 12.5 19.285156 13.101562 19.453125 13.816406 C 19.5 14.003906 19.445312 14.253906 19.238281 14.324219 C 18.992188 14.40625 18.75 14.214844 18.660156 13.992188 C 18.503906 13.628906 18.320312 13.265625 18.046875 12.972656 C 17.175781 12.09375 16.117188 11.441406 15.179688 10.636719 C 14.902344 10.410156 14.703125 10.105469 14.445312 9.863281 C 14.023438 9.921875 13.597656 10.050781 13.167969 9.972656 C 12.605469 9.875 12.136719 9.476562 11.84375 9 C 11.382812 8.175781 11.636719 6.996094 12.441406 6.484375 C 12.652344 6.34375 12.890625 6.242188 13.136719 6.191406 M 13.308594 7.011719 C 12.707031 7.136719 12.296875 7.816406 12.484375 8.402344 C 12.640625 8.898438 13.171875 9.238281 13.6875 9.148438 C 14.296875 9.097656 14.777344 8.425781 14.585938 7.832031 C 14.445312 7.292969 13.871094 6.863281 13.308594 7.011719 Z M 13.308594 7.011719 " fill-opacity="1" fill-rule="nonzero"/><path fill="#ffffff" d="M 10.039062 12.796875 C 10.492188 12.605469 11.015625 12.527344 11.488281 12.691406 C 12.117188 12.890625 12.589844 13.4375 12.757812 14.066406 C 13.515625 14.066406 14.273438 14.070312 15.035156 14.058594 C 15.925781 13.996094 16.84375 13.707031 17.71875 14.015625 C 18.941406 14.476562 19.9375 15.605469 20.121094 16.917969 C 20.203125 17.5 20.152344 18.089844 20.183594 18.675781 C 20.1875 19.613281 20.183594 20.550781 20.183594 21.492188 C 20.171875 21.566406 20.191406 21.65625 20.28125 21.675781 C 20.566406 21.773438 20.859375 21.890625 21.082031 22.101562 C 21.519531 22.511719 21.730469 23.128906 21.691406 23.71875 C 21.644531 24.289062 21.328125 24.839844 20.828125 25.136719 C 20.050781 25.660156 18.882812 25.527344 18.296875 24.773438 C 17.621094 23.976562 17.734375 22.625 18.585938 21.996094 C 18.816406 21.808594 19.125 21.78125 19.363281 21.613281 C 19.402344 20.617188 19.375 19.617188 19.378906 18.621094 C 19.371094 18.054688 19.398438 17.484375 19.269531 16.929688 C 19.140625 16.386719 18.84375 15.894531 18.46875 15.492188 C 18.308594 16.074219 17.894531 16.527344 17.605469 17.039062 C 17.359375 17.449219 17.15625 17.894531 16.8125 18.230469 C 16.414062 18.664062 15.90625 18.964844 15.445312 19.324219 C 15.300781 19.421875 15.222656 19.585938 15.136719 19.730469 C 15.394531 20.214844 15.558594 20.785156 15.394531 21.328125 C 15.226562 21.851562 14.863281 22.335938 14.34375 22.546875 C 13.757812 22.820312 13.027344 22.769531 12.484375 22.414062 C 11.902344 22.023438 11.558594 21.3125 11.636719 20.609375 C 11.699219 19.898438 12.207031 19.226562 12.898438 19.007812 C 13.359375 18.851562 13.859375 18.898438 14.324219 19.011719 C 15.203125 18.492188 16.105469 17.921875 16.683594 17.050781 C 17.074219 16.378906 17.546875 15.742188 17.789062 14.988281 C 17.625 14.820312 17.386719 14.789062 17.167969 14.730469 C 16.46875 14.59375 15.785156 14.859375 15.089844 14.894531 C 14.355469 14.921875 13.617188 14.867188 12.878906 14.902344 C 12.714844 14.894531 12.710938 15.105469 12.671875 15.21875 C 12.550781 15.5625 12.324219 15.871094 12.027344 16.082031 C 11.464844 16.488281 10.675781 16.550781 10.050781 16.238281 C 9.421875 15.945312 8.984375 15.277344 8.976562 14.578125 C 8.960938 13.851562 9.363281 13.097656 10.039062 12.796875 M 10.554688 13.496094 C 10.136719 13.644531 9.804688 14.066406 9.816406 14.519531 C 9.816406 15.109375 10.355469 15.628906 10.945312 15.597656 C 11.414062 15.585938 11.828125 15.214844 11.929688 14.761719 C 12.054688 14.242188 11.726562 13.648438 11.214844 13.496094 C 11 13.441406 10.765625 13.429688 10.554688 13.496094 M 13.253906 19.78125 C 12.722656 19.914062 12.375 20.496094 12.484375 21.03125 C 12.546875 21.300781 12.703125 21.558594 12.933594 21.714844 C 13.242188 21.917969 13.652344 21.941406 13.988281 21.792969 C 14.351562 21.625 14.601562 21.242188 14.613281 20.84375 C 14.609375 20.484375 14.433594 20.125 14.132812 19.921875 C 13.882812 19.738281 13.546875 19.6875 13.253906 19.78125 M 19.488281 22.492188 C 19.078125 22.613281 18.695312 22.96875 18.695312 23.421875 C 18.660156 23.855469 18.90625 24.28125 19.265625 24.515625 C 19.90625 24.859375 20.808594 24.386719 20.867188 23.65625 C 20.957031 22.9375 20.1875 22.246094 19.488281 22.492188 Z M 19.488281 22.492188 " fill-opacity="1" fill-rule="nonzero"/><path fill="#000000" d="M 41.402344 6.546875 C 43.015625 6.546875 44.332031 6.910156 45.355469 7.628906 C 46.378906 8.351562 46.921875 9.460938 46.980469 10.96875 L 44.027344 11.089844 C 43.933594 10.414062 43.683594 9.890625 43.28125 9.527344 C 42.886719 9.15625 42.242188 8.972656 41.359375 8.972656 C 40.75 8.972656 40.1875 9.082031 39.671875 9.296875 C 39.15625 9.515625 38.898438 9.890625 38.898438 10.421875 C 38.898438 10.867188 39.128906 11.222656 39.585938 11.488281 C 40.050781 11.753906 40.871094 12.019531 42.054688 12.289062 C 43.152344 12.550781 44.054688 12.828125 44.765625 13.121094 C 45.480469 13.410156 46.09375 13.878906 46.609375 14.523438 C 47.125 15.167969 47.382812 16.042969 47.382812 17.144531 C 47.382812 17.699219 47.253906 18.289062 46.992188 18.914062 C 46.738281 19.539062 46.320312 20.078125 45.738281 20.527344 C 45.300781 20.878906 44.726562 21.148438 44.011719 21.335938 C 43.304688 21.527344 42.480469 21.621094 41.542969 21.621094 C 39.730469 21.621094 38.332031 21.214844 37.351562 20.390625 C 36.375 19.566406 35.78125 18.316406 35.5625 16.632812 L 38.417969 16.371094 C 38.726562 18.226562 39.785156 19.15625 41.585938 19.15625 C 42.539062 19.15625 43.25 18.957031 43.730469 18.558594 C 44.210938 18.15625 44.453125 17.683594 44.453125 17.144531 C 44.453125 16.75 44.335938 16.4375 44.097656 16.207031 C 43.859375 15.976562 43.488281 15.773438 42.976562 15.601562 C 42.46875 15.433594 41.675781 15.21875 40.585938 14.960938 C 39.234375 14.664062 38.148438 14.164062 37.324219 13.457031 C 36.503906 12.75 36.097656 11.804688 36.097656 10.621094 C 36.097656 9.980469 36.257812 9.355469 36.578125 8.738281 C 36.90625 8.121094 37.464844 7.601562 38.261719 7.179688 C 39.054688 6.757812 40.101562 6.546875 41.402344 6.546875 Z M 41.402344 6.546875 " fill-opacity="1" fill-rule="nonzero"/><path fill="#000000" d="M 52.683594 18.324219 L 52.726562 18.324219 L 55.167969 10.828125 L 58.054688 10.828125 L 54.339844 20.996094 L 54.089844 21.707031 C 53.738281 22.695312 53.425781 23.445312 53.144531 23.953125 C 52.867188 24.464844 52.460938 24.875 51.925781 25.1875 C 51.390625 25.503906 50.65625 25.660156 49.71875 25.660156 C 49.160156 25.660156 48.628906 25.601562 48.128906 25.496094 L 47.890625 23.3125 C 48.359375 23.398438 48.746094 23.441406 49.046875 23.441406 C 49.628906 23.441406 50.074219 23.285156 50.394531 22.980469 C 50.714844 22.675781 50.992188 22.148438 51.222656 21.402344 L 47.214844 10.828125 L 50.1875 10.828125 Z M 52.683594 18.324219 " fill-opacity="1" fill-rule="nonzero"/><path fill="#000000" d="M 64.582031 10.578125 C 65.207031 10.578125 65.75 10.683594 66.207031 10.898438 C 66.671875 11.105469 67.039062 11.355469 67.308594 11.644531 C 67.632812 11.996094 67.847656 12.410156 67.945312 12.894531 C 68.050781 13.378906 68.101562 13.910156 68.101562 14.492188 L 68.101562 21.378906 L 65.3125 21.378906 L 65.3125 15.617188 C 65.3125 14.636719 65.203125 13.910156 64.988281 13.433594 C 64.769531 12.960938 64.308594 12.722656 63.605469 12.722656 C 62.941406 12.722656 62.425781 12.914062 62.058594 13.292969 C 61.691406 13.671875 61.476562 14.113281 61.414062 14.613281 C 61.371094 14.941406 61.335938 15.234375 61.3125 15.496094 C 61.292969 15.75 61.285156 16.042969 61.285156 16.371094 L 61.285156 21.378906 L 58.503906 21.378906 L 58.503906 10.828125 L 61.144531 10.828125 L 61.144531 12.375 C 61.441406 11.925781 61.882812 11.515625 62.476562 11.140625 C 63.066406 10.765625 63.769531 10.578125 64.582031 10.578125 Z M 64.582031 10.578125 " fill-opacity="1" fill-rule="nonzero"/><path fill="#000000" d="M 73.734375 10.578125 C 75.070312 10.578125 76.066406 10.753906 76.71875 11.105469 C 77.371094 11.449219 77.78125 11.90625 77.949219 12.46875 C 78.117188 13.03125 78.195312 13.777344 78.183594 14.699219 L 78.167969 17.777344 C 78.152344 18.738281 78.183594 19.4375 78.265625 19.875 C 78.347656 20.3125 78.515625 20.8125 78.777344 21.378906 L 76.03125 21.378906 C 75.960938 21.230469 75.835938 20.84375 75.664062 20.222656 C 75.160156 20.710938 74.640625 21.066406 74.101562 21.289062 C 73.566406 21.511719 72.996094 21.621094 72.386719 21.621094 C 71.34375 21.621094 70.5 21.335938 69.851562 20.761719 C 69.210938 20.183594 68.886719 19.433594 68.886719 18.507812 C 68.886719 17.734375 69.082031 17.117188 69.46875 16.660156 C 69.855469 16.207031 70.328125 15.878906 70.882812 15.671875 C 71.4375 15.472656 72.097656 15.292969 72.855469 15.148438 C 74.019531 14.929688 74.882812 14.710938 75.4375 14.492188 L 75.4375 14.046875 C 75.4375 13.582031 75.300781 13.246094 75.03125 13.035156 C 74.761719 12.828125 74.265625 12.722656 73.550781 12.722656 C 72.992188 12.722656 72.578125 12.835938 72.308594 13.058594 C 72.039062 13.28125 71.835938 13.609375 71.699219 14.046875 L 69.171875 13.578125 C 69.445312 12.542969 69.933594 11.785156 70.640625 11.300781 C 71.34375 10.820312 72.375 10.578125 73.734375 10.578125 Z M 73.691406 16.753906 L 73.222656 16.859375 C 72.191406 17.074219 71.675781 17.519531 71.675781 18.203125 C 71.675781 18.613281 71.820312 18.953125 72.109375 19.234375 C 72.402344 19.507812 72.773438 19.644531 73.222656 19.644531 C 73.585938 19.644531 73.949219 19.550781 74.316406 19.363281 C 74.683594 19.171875 74.96875 18.921875 75.171875 18.609375 C 75.347656 18.324219 75.4375 17.835938 75.4375 17.144531 L 75.4375 16.304688 C 74.910156 16.472656 74.328125 16.621094 73.691406 16.753906 Z M 73.691406 16.753906 " fill-opacity="1" fill-rule="nonzero"/><path fill="#000000" d="M 85.40625 10.578125 C 86.175781 10.578125 86.894531 10.789062 87.566406 11.210938 C 88.238281 11.632812 88.78125 12.265625 89.191406 13.109375 C 89.609375 13.953125 89.816406 14.984375 89.816406 16.207031 C 89.816406 17.386719 89.613281 18.382812 89.214844 19.199219 C 88.816406 20.015625 88.28125 20.625 87.609375 21.023438 C 86.9375 21.421875 86.195312 21.621094 85.382812 21.621094 C 84.1875 21.621094 83.164062 21.136719 82.3125 20.15625 L 82.3125 25.394531 L 79.523438 25.394531 L 79.523438 10.828125 L 82.125 10.828125 L 82.125 12.375 L 82.167969 12.375 C 82.492188 11.890625 82.9375 11.464844 83.515625 11.109375 C 84.09375 10.753906 84.722656 10.578125 85.40625 10.578125 Z M 82.511719 14.535156 C 82.363281 14.96875 82.289062 15.566406 82.289062 16.328125 C 82.289062 17.375 82.511719 18.164062 82.949219 18.695312 C 83.390625 19.21875 83.949219 19.484375 84.632812 19.484375 C 85.453125 19.484375 86.042969 19.160156 86.40625 18.507812 C 86.761719 17.855469 86.945312 17.046875 86.945312 16.085938 C 86.945312 14.960938 86.730469 14.128906 86.304688 13.597656 C 85.878906 13.070312 85.347656 12.800781 84.710938 12.800781 C 84.234375 12.800781 83.796875 12.953125 83.398438 13.25 C 83 13.546875 82.703125 13.976562 82.511719 14.535156 Z M 82.511719 14.535156 " fill-opacity="1" fill-rule="nonzero"/><path fill="#000000" d="M 93.632812 10.828125 L 95.527344 10.828125 L 95.527344 13.042969 L 93.632812 13.042969 L 93.632812 17.691406 C 93.632812 18.144531 93.648438 18.476562 93.683594 18.695312 C 93.71875 18.90625 93.789062 19.0625 93.894531 19.164062 C 94.003906 19.257812 94.171875 19.304688 94.40625 19.304688 C 94.6875 19.304688 95.0625 19.214844 95.527344 19.035156 L 95.769531 21.195312 C 95.484375 21.332031 95.136719 21.4375 94.730469 21.507812 C 94.324219 21.582031 93.9375 21.621094 93.574219 21.621094 C 93.046875 21.621094 92.578125 21.53125 92.171875 21.359375 C 91.761719 21.183594 91.464844 20.945312 91.277344 20.648438 C 91.074219 20.308594 90.945312 19.929688 90.902344 19.519531 C 90.851562 19.101562 90.832031 18.578125 90.832031 17.953125 L 90.832031 13.042969 L 89.546875 13.042969 L 89.546875 10.828125 L 90.832031 10.828125 L 90.832031 8.730469 L 93.632812 7.074219 Z M 93.632812 10.828125 " fill-opacity="1" fill-rule="nonzero"/><path fill="#000000" d="M 100.300781 18.324219 L 100.34375 18.324219 L 102.785156 10.828125 L 105.671875 10.828125 L 101.953125 20.996094 L 101.707031 21.707031 C 101.355469 22.695312 101.039062 23.445312 100.761719 23.953125 C 100.480469 24.464844 100.074219 24.875 99.542969 25.1875 C 99.007812 25.503906 98.273438 25.660156 97.335938 25.660156 C 96.777344 25.660156 96.246094 25.601562 95.746094 25.496094 L 95.503906 23.3125 C 95.976562 23.398438 96.363281 23.441406 96.660156 23.441406 C 97.242188 23.441406 97.691406 23.285156 98.007812 22.980469 C 98.332031 22.675781 98.605469 22.148438 98.839844 21.402344 L 94.832031 10.828125 L 97.804688 10.828125 Z M 100.300781 18.324219 " fill-opacity="1" fill-rule="nonzero"/></svg>